<?xml version="1.0" encoding="UTF-8"?>
<svg width="167px" height="200px" viewBox="0 0 167 200" version="1.1" xmlns="http://www.w3.org/2000/svg" xmlns:xlink="http://www.w3.org/1999/xlink">
    <!-- Generator: Sketch 40.3 (33839) - http://www.bohemiancoding.com/sketch -->
    <title>Combined Shape</title>
    <desc>Created with Sketch.</desc>
    <defs></defs>
    <g id="icon" stroke="none" stroke-width="1" fill="none" fill-rule="evenodd">
        <g id="a" fill="#FFFFFF">
            <path d="M167.412978,167.571973 L144.419667,167.571973 C147.942562,162.692119 150.919472,157.397278 153.250402,151.764447 L165.257042,151.764447 L165.257042,147.932562 L154.713359,147.932562 C157.572273,139.832805 159.144226,131.131066 159.144226,122.066338 C159.144226,109.963701 156.444307,98.3760487 151.126466,87.6123716 L151.126466,69.3749188 L160.707179,69.3749188 C161.766147,69.3749188 162.623121,68.5179445 162.623121,67.4589762 L162.623121,52.1314361 C162.623121,51.0724678 161.766147,50.2154935 160.707179,50.2154935 L139.630811,50.2154935 C138.571843,50.2154935 137.714869,51.0724678 137.714869,52.1314361 L137.714869,67.4589762 L137.714869,68.4159475 C136.087917,66.7039989 134.382969,65.068048 132.609022,63.5090947 C133.35,63.2441027 133.882984,62.5441237 133.882984,61.7111487 L133.882984,52.1314361 C133.882984,51.0724678 133.026009,50.2154935 131.967041,50.2154935 L111.430657,50.2154935 C106.240813,48.0285591 100.812976,46.4166075 95.2691419,45.4056378 L95.2701419,28.8071358 C95.2701419,27.2471826 94.9281522,25.768227 94.3271702,24.4292671 L97.465076,21.2913613 L100.173995,24.00128 C100.548984,24.3752687 101.038969,24.5622631 101.528954,24.5622631 C102.018939,24.5622631 102.509925,24.3752687 102.883913,24.00128 L105.594832,21.2913613 C105.953821,21.6503505 106.440807,21.8533444 106.949792,21.8533444 C107.458776,21.8533444 107.944762,21.6503505 108.304751,21.2913613 L113.722588,15.8725238 C114.471566,15.1245463 114.471566,13.9115827 113.722588,13.1636051 L101.122966,0.560983171 C100.374989,-0.18699439 99.1620251,-0.18699439 98.4140476,0.560983171 L92.9912103,5.97782067 C92.632221,6.33780987 92.4292271,6.82379529 92.4292271,7.33278002 C92.4292271,7.83976481 92.632221,8.32775017 92.9912103,8.68773937 L93.4021979,9.09772707 L90.6912793,11.8086457 C89.9433017,12.5566233 89.9433017,13.7695869 90.6912793,14.5175645 L94.7551573,18.5824425 L92.1222363,21.2153635 C90.1742948,19.2644221 87.4843755,18.0554583 84.5174645,18.0544584 C78.5856424,18.0564583 73.7637871,22.8803136 73.765787,28.8071358 L73.7647871,39.5728128 L68.1069568,45.232643 C51.632451,48.034559 36.9598912,56.0563183 25.7502275,67.4589762 L0,67.4589762 L0,71.2918612 L22.2123336,71.2918612 C10.4076878,85.0024499 3.27690169,102.797916 3.27690169,122.066338 C3.27690169,154.174375 22.799316,181.804546 50.5954821,193.726188 C50.6464806,193.753187 50.6884793,193.793186 50.7434777,193.816186 C51.9614412,194.33417 53.1964041,194.808156 54.4393668,195.262142 C54.4413668,195.263142 54.4433667,195.264142 54.4463666,195.264142 C55.5893323,195.68213 56.7412978,196.074118 57.9042629,196.437107 C57.9822605,196.462106 58.0592582,196.488105 58.1372559,196.512105 C59.268222,196.861094 60.4071878,197.188084 61.5551533,197.485075 C61.8581443,197.564073 62.165135,197.632071 62.4701259,197.707069 C63.2231033,197.893063 63.9790806,198.069058 64.7390578,198.232053 C65.2600422,198.34505 65.7830265,198.452046 66.3090107,198.554043 C66.8439947,198.65804 67.3819785,198.751037 67.9199624,198.843035 C69.099927,199.047029 70.2878914,199.222023 71.4858554,199.372019 C71.7758467,199.408018 72.0638381,199.453016 72.3548294,199.486015 C72.3698289,199.487015 72.3848285,199.487015 72.399828,199.488015 C75.2937412,199.816006 78.2306531,200 81.2105637,200 C105.476836,200 127.184184,188.848335 141.487755,171.403858 L167.412978,171.403858 L167.412978,167.571973 Z M81.2105637,196.168115 C78.9426317,196.168115 76.7026989,196.049119 74.4857654,195.849125 L74.4857654,192.00124 L74.4857654,182.421527 L74.4857654,172.840815 L74.4857654,161.34516 L74.4857654,149.848505 C74.4857654,148.789536 73.6287911,147.932562 72.5698229,147.932562 L68.7379379,147.932562 L68.7379379,128.772137 L93.3521994,128.772137 C93.8611842,128.772137 94.3481696,128.570143 94.7071588,128.211154 C95.066148,127.851164 95.268142,127.363179 95.268142,126.856194 L95.2641421,117.276482 C95.2641421,116.99549 95.201144,116.730498 95.0921472,116.489505 C95.200144,116.250512 95.2631421,115.98652 95.2631421,115.706529 L95.267142,63.6270912 L126.755197,63.6270912 C130.752077,66.7479976 134.432967,70.2808916 137.714869,74.1477756 L137.714869,113.443597 L100.149996,113.443597 C99.0930272,113.443597 98.234053,114.301571 98.234053,115.359539 L98.2300531,126.856194 C98.2300531,127.363179 98.432047,127.851164 98.7910363,128.211154 C99.1510255,128.570143 99.6370109,128.772137 100.145996,128.772137 L139.630811,128.772137 L149.210524,128.772137 C150.269492,128.772137 151.126466,127.915163 151.126466,126.856194 L151.126466,115.359539 L151.126466,97.4460766 C153.903383,105.304841 155.312341,113.551593 155.312341,122.066338 C155.312341,131.161065 153.65639,139.874804 150.645481,147.932562 L123.584292,147.932562 L123.584292,151.764447 L149.080528,151.764447 C146.586602,157.441277 143.400698,162.743118 139.629811,167.571973 L89.8143056,167.571973 L89.8143056,171.403858 L136.437907,171.403858 C122.859314,186.588402 103.135906,196.168115 81.2105637,196.168115 Z M7.10878674,122.066338 C7.10878674,102.552923 14.798556,84.6264612 27.3591792,71.2918612 L47.6615702,71.2918612 L47.6615702,67.4589762 L31.2480626,67.4589762 C38.6818395,60.6381809 47.5065748,55.3073408 57.2592822,51.9564413 C57.2532824,52.0154395 57.2412828,52.0714379 57.2412828,52.1314361 L57.2412828,61.7111487 C57.2412828,62.7701169 58.0982571,63.6270912 59.1572253,63.6270912 L73.7647871,63.6270912 L73.7637871,115.359539 L68.7379379,115.359539 L68.7379379,107.695769 C68.7379379,106.636801 67.8809636,105.779827 66.8219953,105.779827 L55.3253402,105.779827 C54.266372,105.779827 53.4093977,106.636801 53.4093977,107.695769 L53.4093977,115.359539 L47.6615702,115.359539 C46.6026019,115.359539 45.7456276,116.216514 45.7456276,117.276482 L45.7456276,126.856194 C45.7456276,127.915163 46.6026019,128.772137 47.6615702,128.772137 L53.4093977,128.772137 L53.4093977,136.435907 L17.4834755,136.435907 L17.4834755,140.268792 L53.4093977,140.268792 L53.4093977,147.932562 L51.4934552,147.932562 C50.434487,147.932562 49.5775127,148.789536 49.5775127,149.848505 L49.5775127,161.34516 L49.5775127,172.840815 L49.5775127,182.421527 L49.5775127,189.060328 C24.4982651,177.169685 7.10878674,151.614452 7.10878674,122.066338 Z M84.5174645,21.8863434 C88.33235,21.8883433 91.4362569,24.9922502 91.4382569,28.8071358 L91.4362569,50.2154935 L77.5966721,50.2154935 L77.5976721,28.8071358 C77.5956721,24.9922502 80.699579,21.8883433 84.5174645,21.8863434 Z M99.3900183,50.2154935 L95.268142,50.2154935 L95.268142,49.2965211 C96.6511005,49.5625131 98.0260592,49.8705039 99.3900183,50.2154935 Z M61.0731678,54.0473786 L73.7647871,54.0473786 L73.7647871,59.7952061 L61.0731678,59.7952061 L61.0731678,54.0473786 Z M84.5069648,34.0299791 L84.5169645,34.0299791 C87.3928782,34.0239793 89.733808,31.6800496 89.733808,28.8061358 C89.733808,25.9302221 87.3928782,23.5892923 84.5149646,23.5892923 C81.6390508,23.5892923 79.2981211,25.932222 79.2941212,28.8151355 C79.300121,31.6820495 81.6390508,34.0209794 84.5069648,34.0299791 Z M84.5149646,27.4211774 C85.2799416,27.4211774 85.900923,28.0421587 85.900923,28.8061358 C85.900923,29.5691129 85.2799416,30.1940942 84.5149646,30.1980941 C83.7499875,30.1920942 83.1280062,29.5711129 83.1270062,28.8131356 C83.1270062,28.0461586 83.7499875,27.4211774 84.5149646,27.4211774 Z M73.7647871,48.3525494 L73.7647871,50.2154935 L63.1191064,50.2154935 C66.5770027,49.3425197 70.1308961,48.7165385 73.7647871,48.3525494 Z M77.5966721,59.7952061 L77.5966721,54.0473786 L91.4362569,54.0473786 L91.4352569,59.7952061 L77.5966721,59.7952061 Z M91.4302571,113.790586 L77.5956721,113.791586 L77.5966721,63.6270912 L91.4352569,63.6270912 L91.4302571,113.790586 Z M57.2422827,115.359539 L64.9060528,115.359539 L64.9060528,109.611712 L57.2422827,109.611712 L57.2422827,115.359539 Z M66.8219953,124.940252 L55.3253402,124.940252 L49.5775127,124.940252 L49.5775127,119.192424 L55.3253402,119.192424 L66.8219953,119.192424 L91.432257,119.192424 L91.4362569,124.940252 L66.8219953,124.940252 Z M64.9060528,147.932562 L57.2412828,147.932562 L57.2412828,140.268792 L61.0731678,140.268792 L61.0731678,136.435907 L57.2412828,136.435907 L57.2412828,128.772137 L64.9060528,128.772137 L64.9060528,147.932562 Z M70.6538804,159.428217 L53.4093977,159.428217 L53.4093977,151.764447 L55.3253402,151.764447 L66.8219953,151.764447 L70.6538804,151.764447 L70.6538804,159.428217 Z M53.4093977,170.924872 L70.6538804,170.924872 L70.6538804,163.260102 L53.4093977,163.260102 L53.4093977,170.924872 Z M53.4093977,190.085297 L70.6538804,190.085297 L70.6538804,184.33747 L53.4093977,184.33747 L53.4093977,190.085297 Z M53.4093977,180.504585 L70.6538804,180.504585 L70.6538804,174.756757 L53.4093977,174.756757 L53.4093977,180.504585 Z M70.6238813,195.400138 C69.4709159,195.235143 68.3249503,195.037149 67.1849845,194.819155 C67.0389888,194.791156 66.8919932,194.769157 66.7459976,194.741158 C65.7920262,194.553163 64.8470546,194.33117 63.9020829,194.106177 C63.6310911,194.041179 63.3560993,193.98518 63.0851074,193.917182 L70.6538804,193.917182 L70.6538804,195.403138 C70.6438807,195.402138 70.633881,195.401138 70.6238813,195.400138 Z M130.050098,59.7952061 L95.267142,59.7952061 L95.268142,54.0473786 L130.050098,54.0473786 L130.050098,59.7952061 Z M141.546754,54.0473786 L158.791236,54.0473786 L158.791236,65.5430337 L149.210524,65.5430337 L141.546754,65.5430337 L141.546754,54.0473786 Z M141.546754,124.940252 L147.294581,124.940252 L147.294581,117.276482 L141.546754,117.276482 L141.546754,124.940252 Z M102.061938,124.940252 L102.065938,117.276482 L137.714869,117.276482 L137.714869,124.940252 L102.061938,124.940252 Z M141.546754,113.443597 L147.294581,113.443597 L147.294581,69.3749188 L141.546754,69.3749188 L141.546754,113.443597 Z M96.1101167,11.8086457 L102.697919,18.3934482 L102.885913,18.5824425 L101.528954,19.9364019 L94.7551573,13.1636051 L96.1101167,11.8086457 Z M99.768007,4.62486125 L109.65871,14.5175645 L106.949792,17.2274832 L97.0570883,7.33278002 L99.768007,4.62486125 Z M99.3882184,109.611512 L99.401218,109.611512 C102.090137,109.611512 107.057988,106.861594 107.057988,102.812716 L107.057988,72.9516115 C107.057988,68.900733 102.087137,66.0578183 99.3942182,66.0578183 C98.3352499,66.0578183 97.4782757,66.9147926 97.4782757,67.9737608 L97.4782757,107.785566 C97.4782757,108.841535 98.33325,109.611512 99.3882184,109.611512 Z M101.310161,70.6086817 C102.302131,71.2166635 103.226103,72.1186364 103.226103,72.9516115 L103.226103,102.812716 C103.226103,103.644691 102.302131,104.546664 101.310161,105.153645 L101.310161,70.6086817 Z M115.869224,111.528354 L126.98789,111.528354 C130.789776,111.528354 133.882684,108.434447 133.882684,104.632561 L133.882684,74.3544694 C133.882684,70.5525834 130.789776,67.4596762 126.98789,67.4596762 L115.869224,67.4596762 C112.067338,67.4596762 108.974431,70.5525834 108.974431,74.3544694 L108.974431,104.632561 C108.974431,108.434447 112.067338,111.528354 115.869224,111.528354 Z M112.806316,74.3544694 C112.806316,72.6645201 114.179275,71.2915613 115.869224,71.2915613 L126.98789,71.2915613 C128.67684,71.2915613 130.050798,72.6645201 130.050798,74.3544694 L130.050798,104.632561 C130.050798,106.32251 128.67684,107.696469 126.98789,107.696469 L115.869224,107.696469 C114.179275,107.696469 112.806316,106.32251 112.806316,104.632561 L112.806316,74.3544694 Z" id="Combined-Shape"></path>
        </g>
    </g>
</svg>