<?xml version="1.0" encoding="UTF-8"?>
<svg width="30px" height="30px" viewBox="0 0 30 30" version="1.1" xmlns="http://www.w3.org/2000/svg" xmlns:xlink="http://www.w3.org/1999/xlink">
    <!-- Generator: Sketch 41 (35326) - http://www.bohemiancoding.com/sketch -->
    <title>Combined Shape</title>
    <desc>Created with Sketch.</desc>
    <defs></defs>
    <g id="icon" stroke="none" stroke-width="1" fill="none" fill-rule="evenodd">
        <g id="Artboard-39" fill="#B2B9C7">
            <path d="M0,3.9992748 C0,1.79053632 1.78679466,0 3.9992748,0 L26.0007252,0 C28.2094637,0 30,1.78679466 30,3.9992748 L30,26.0007252 C30,28.2094637 28.2132053,30 26.0007252,30 L3.9992748,30 C1.79053632,30 0,28.2132053 0,26.0007252 L0,3.9992748 Z M2,3.99700466 C2,2.89408944 2.89497885,2 3.99700466,2 L26.0029953,2 C27.1059106,2 28,2.89497885 28,3.99700466 L28,26.0029953 C28,27.1059106 27.1050211,28 26.0029953,28 L3.99700466,28 C2.89408944,28 2,27.1050211 2,26.0029953 L2,3.99700466 Z M17.1849736,14.8815102 C17.1849736,14.4410936 17.1390968,14.1016057 17.0748694,13.7621179 L10.7255293,13.7621179 L10.7255293,16.0743053 L14.5424737,16.0743053 C14.3864928,17.0560674 13.3863799,18.973715 10.7255293,18.973715 C8.43169258,18.973715 6.5599218,17.0744181 6.5599218,14.7255293 C6.5599218,12.3766405 8.43169258,10.4773437 10.7255293,10.4773437 C12.0376039,10.4773437 12.9092619,11.0370398 13.4047306,11.5141579 L15.2306247,9.76166662 C14.0561803,8.66062498 12.542248,8 10.7255293,8 C7.0095138,8 4,11.0095138 4,14.7255293 C4,18.4415448 7.0095138,21.4510586 10.7255293,21.4510586 C14.6067011,21.4510586 17.1849736,18.7259806 17.1849736,14.8815102 Z M25.1399994,13.7621179 L23.2223519,13.7621179 L23.2223519,11.8444704 L21.295529,11.8444704 L21.295529,13.7621179 L19.3778815,13.7621179 L19.3778815,15.6889408 L21.295529,15.6889408 L21.295529,17.6065883 L23.2223519,17.6065883 L23.2223519,15.6889408 L25.1399994,15.6889408 L25.1399994,13.7621179 Z" id="Combined-Shape"></path>
        </g>
    </g>
</svg>