<?xml version="1.0" encoding="UTF-8"?>
<svg width="30px" height="30px" viewBox="0 0 30 30" version="1.1" xmlns="http://www.w3.org/2000/svg" xmlns:xlink="http://www.w3.org/1999/xlink">
    <!-- Generator: Sketch 41 (35326) - http://www.bohemiancoding.com/sketch -->
    <title>Combined Shape</title>
    <desc>Created with Sketch.</desc>
    <defs></defs>
    <g id="icon" stroke="none" stroke-width="1" fill="none" fill-rule="evenodd">
        <g id="Artboard-38" fill="#B2B9C7">
            <path d="M0,3.9992748 C0,1.79053632 1.78679466,0 3.9992748,0 L26.0007252,0 C28.2094637,0 30,1.78679466 30,3.9992748 L30,26.0007252 C30,28.2094637 28.2132053,30 26.0007252,30 L3.9992748,30 C1.79053632,30 0,28.2132053 0,26.0007252 L0,3.9992748 Z M2,3.99700466 C2,2.89408944 2.89497885,2 3.99700466,2 L26.0029953,2 C27.1059106,2 28,2.89497885 28,3.99700466 L28,26.0029953 C28,27.1059106 27.1050211,28 26.0029953,28 L3.99700466,28 C2.89408944,28 2,27.1050211 2,26.0029953 L2,3.99700466 Z M21.8299999,10.3338579 C21.3210278,10.5532424 20.7681789,10.7111992 20.1977791,10.7726269 C20.7857296,10.4216117 21.233274,9.86876269 21.4438832,9.21060914 C20.8998096,9.53529822 20.2855329,9.7722335 19.6449301,9.89508883 C19.1271827,9.34223985 18.3900507,9 17.5739403,9 C16.0031472,9 14.7394923,10.2724302 14.7394923,11.834448 C14.7394923,12.0538325 14.7658185,12.273217 14.8096954,12.4838261 C12.4578934,12.3609708 10.3605774,11.2377221 8.96529187,9.51774746 C8.71958121,9.93896573 8.57917512,10.4216117 8.57917512,10.9481345 C8.57917512,11.9309771 9.07937182,12.7997398 9.84282994,13.3087119 C9.37773476,13.2911611 8.93896573,13.1595304 8.56162436,12.9489213 L8.56162436,12.9840228 C8.56162436,14.3617576 9.53569162,15.5025571 10.834448,15.7658185 C10.5975127,15.8272462 10.3430266,15.8623477 10.0885406,15.8623477 C9.9042576,15.8623477 9.72874999,15.8447969 9.55324238,15.8184708 C9.91303298,16.9417195 10.9573033,17.7578299 12.2034073,17.784156 C11.2293401,18.5476142 10.0095622,18.9951586 8.68447969,18.9951586 C8.44754441,18.9951586 8.2281599,18.9863832 8,18.9600571 C9.25487943,19.7673921 10.7466941,20.2324872 12.3525888,20.2324872 C17.5651649,20.2324872 20.4171636,15.915 20.4171636,12.1679124 C20.4171636,12.0450571 20.4171636,11.9222018 20.4083883,11.7993464 C20.9612372,11.3956789 21.4438832,10.8954822 21.8299999,10.3338579 Z" id="Combined-Shape"></path>
        </g>
    </g>
</svg>