<?xml version="1.0" encoding="UTF-8"?>
<svg width="30px" height="30px" viewBox="0 0 30 30" version="1.1" xmlns="http://www.w3.org/2000/svg" xmlns:xlink="http://www.w3.org/1999/xlink">
    <!-- Generator: Sketch 41 (35326) - http://www.bohemiancoding.com/sketch -->
    <title>Combined Shape</title>
    <desc>Created with Sketch.</desc>
    <defs></defs>
    <g id="icon" stroke="none" stroke-width="1" fill="none" fill-rule="evenodd">
        <g id="Artboard-40" fill="#B2B9C7">
            <path d="M0,3.9992748 C0,1.79053632 1.78679466,0 3.9992748,0 L26.0007252,0 C28.2094637,0 30,1.78679466 30,3.9992748 L30,26.0007252 C30,28.2094637 28.2132053,30 26.0007252,30 L3.9992748,30 C1.79053632,30 0,28.2132053 0,26.0007252 L0,3.9992748 Z M2,3.99700466 C2,2.89408944 2.89497885,2 3.99700466,2 L26.0029953,2 C27.1059106,2 28,2.89497885 28,3.99700466 L28,26.0029953 C28,27.1059106 27.1050211,28 26.0029953,28 L3.99700466,28 C2.89408944,28 2,27.1050211 2,26.0029953 L2,3.99700466 Z M10,13.0651717 C10,14.1766248 10.4411875,15.7971404 11.6544531,16.1619685 C11.6968749,16.1704529 11.7562656,16.1874216 11.7986874,16.1874216 C12.0786718,16.1874216 12.2398749,15.4068591 12.2398749,15.1862654 C12.2398749,14.9232498 11.5696093,14.363281 11.5696093,13.2687967 C11.5696093,10.9949843 13.3004218,9.38295308 15.5402967,9.38295308 C17.4662498,9.38295308 18.8916247,10.4774374 18.8916247,12.4882342 C18.8916247,13.9899686 18.2892341,16.806781 16.3378279,16.806781 C15.6336248,16.806781 15.0312342,16.2977185 15.0312342,15.5680623 C15.0312342,14.499031 15.7778592,13.4639373 15.7778592,12.3609686 C15.7778592,11.690703 15.3960623,11.147703 14.6833749,11.147703 C13.7161561,11.147703 13.1222499,12.233703 13.1222499,13.0906248 C13.1222499,13.5657498 13.1816405,14.0917811 13.3937499,14.5244842 C13.0034687,16.2043904 12.2059374,18.7072809 12.2059374,20.4380934 C12.2059374,20.972609 12.2822968,21.4986402 12.3332031,22.0331558 L12.4095624,22.1179996 L12.5283437,22.0755777 C13.9537186,20.1241715 13.9028124,19.7423746 14.5476249,17.1885778 C14.8954842,17.8503591 15.7948279,18.2067028 16.5075154,18.2067028 C19.5109841,18.2067028 20.8599997,15.2795935 20.8599997,12.640953 C20.8599997,9.83262494 18.4334685,8 15.7693748,8 C12.8677187,8 10,9.93443744 10,13.0651717 Z" id="Combined-Shape"></path>
        </g>
    </g>
</svg>