<?xml version="1.0" encoding="UTF-8"?>
<svg width="18px" height="18px" viewBox="0 0 18 18" version="1.1" xmlns="http://www.w3.org/2000/svg" xmlns:xlink="http://www.w3.org/1999/xlink">
    <!-- Generator: Sketch 42 (36781) - http://www.bohemiancoding.com/sketch -->
    <title>Combined Shape</title>
    <desc>Created with Sketch.</desc>
    <defs></defs>
    <g id="icon" stroke="none" stroke-width="1" fill="none" fill-rule="evenodd">
        <g id="Artboard-46" fill-rule="nonzero" fill="#B2B9C7">
            <path d="M3.6,2.7 L3.6,4.5 L4.5,4.5 L4.5,2.7 L17.1073772,2.7 C17.6003592,2.7 18,3.09947834 18,3.6 L18,4.5 L0,4.5 L0,3.6 C0,3.10294373 0.409775019,2.7 0.892622799,2.7 L3.6,2.7 Z M18,4.5 L18,16.0080285 C18,17.1142273 17.1067681,18 16.0049107,18 L1.99508929,18 C0.892622799,18 0,17.108164 0,16.0080285 L0,4.5 L18,4.5 Z M16.2,6.3 L1.8,6.3 L1.8,16.2 L16.2,16.2 L16.2,6.3 Z M12.6,2.7 L13.5,2.7 L13.5,4.5 L12.6,4.5 L12.6,2.7 Z M4.5,0 L6.3,0 L6.3,2.7 L4.5,2.7 L4.5,0 Z M13.5,0 L15.3,0 L15.3,2.7 L13.5,2.7 L13.5,0 Z" id="Combined-Shape"></path>
        </g>
    </g>
</svg>