<?xml version="1.0" encoding="UTF-8"?>
<svg width="29px" height="22px" viewBox="0 0 29 22" version="1.1" xmlns="http://www.w3.org/2000/svg" xmlns:xlink="http://www.w3.org/1999/xlink">
    <!-- Generator: Sketch 40.3 (33839) - http://www.bohemiancoding.com/sketch -->
    <title>Combined Shape</title>
    <desc>Created with Sketch.</desc>
    <defs></defs>
    <g id="icon" stroke="none" stroke-width="1" fill="none" fill-rule="evenodd">
        <g id="Artboard-18" fill="#E1E6EE">
            <path d="M20.3580337,2.9244314 L1.46735143,2.9244314 C0.657373441,2.9244314 0,3.58180484 0,4.39178283 L0,20.5326486 C0,21.3426266 0.657373441,22 1.46735143,22 L27.8796772,22 C28.6896552,22 29.3470286,21.3426266 29.3470286,20.5326486 L29.3470286,4.39178283 C29.3470286,3.58180484 28.6896552,2.9244314 27.8796772,2.9244314 L24.760088,2.9244314 L24.760088,0 L20.3580337,0 L20.3580337,2.9244314 Z M24.760088,5.85913426 L26.4123258,5.85913426 L26.4123258,19.0652971 L2.93470286,19.0652971 L2.93470286,5.85913426 L20.3580337,5.85913426 L20.3580337,5.86940572 L24.760088,5.86940572 L24.760088,5.85913426 Z M5.13573001,10.2611886 L10.8217168,10.2611886 L10.8217168,7.32648569 L5.13573001,7.32648569 L5.13573001,10.2611886 Z M18.5253118,17.5979457 C15.6940572,17.5979457 13.3895818,15.2934703 13.3895818,12.4622157 C13.3895818,9.63096112 15.6940572,7.32648569 18.5253118,7.32648569 C21.3565664,7.32648569 23.6610418,9.63096112 23.6610418,12.4622157 C23.6610418,15.2934703 21.3565664,17.5979457 18.5253118,17.5979457 Z M18.5253118,10.2611886 C17.3118122,10.2611886 16.3242847,11.2487161 16.3242847,12.4622157 C16.3242847,13.6757153 17.3118122,14.6632428 18.5253118,14.6632428 C19.7388114,14.6632428 20.726339,13.6757153 20.726339,12.4622157 C20.726339,11.2487161 19.7388114,10.2611886 18.5253118,10.2611886 Z" id="Combined-Shape"></path>
        </g>
    </g>
</svg>