<?xml version="1.0" encoding="UTF-8"?>
<svg width="22px" height="21px" viewBox="0 0 22 21" version="1.1" xmlns="http://www.w3.org/2000/svg" xmlns:xlink="http://www.w3.org/1999/xlink">
    <!-- Generator: Sketch 41 (35326) - http://www.bohemiancoding.com/sketch -->
    <title></title>
    <desc>Created with Sketch.</desc>
    <defs></defs>
    <g id="icon" stroke="none" stroke-width="1" fill="none" fill-rule="evenodd">
        <g id="Artboard-31" fill="#4C5669">
            <path d="M17.1428776,18.4285684 C17.1428776,18.8973189 16.7544843,19.2857122 16.2857337,19.2857122 C15.8169831,19.2857122 15.4285898,18.8973189 15.4285898,18.4285684 C15.4285898,17.9598178 15.8169831,17.5714245 16.2857337,17.5714245 C16.7544843,17.5714245 17.1428776,17.9598178 17.1428776,18.4285684 Z M20.5714531,18.4285684 C20.5714531,18.8973189 20.1830598,19.2857122 19.7143092,19.2857122 C19.2455587,19.2857122 18.8571653,18.8973189 18.8571653,18.4285684 C18.8571653,17.9598178 19.2455587,17.5714245 19.7143092,17.5714245 C20.1830598,17.5714245 20.5714531,17.9598178 20.5714531,18.4285684 Z M22.2857409,15.4285648 C22.2857409,14.7187425 21.7098473,14.142849 21.000025,14.142849 L14.7857319,14.142849 L12.9643012,15.9642797 C12.4687649,16.4464231 11.825907,16.7142806 11.1428704,16.7142806 C10.4598339,16.7142806 9.81697599,16.4464231 9.32143968,15.9642797 L7.51340181,14.142849 L1.28571582,14.142849 C0.575893544,14.142849 0,14.7187425 0,15.4285648 L0,19.7142842 C0,20.4241065 0.575893544,21 1.28571582,21 L21.000025,21 C21.7098473,21 22.2857409,20.4241065 22.2857409,19.7142842 L22.2857409,15.4285648 Z M17.9330571,7.80801999 C17.7991284,7.49998391 17.4910923,7.28569794 17.1428776,7.28569794 L13.7143021,7.28569794 L13.7143021,1.28569078 C13.7143021,0.816940226 13.3259087,0.428546906 12.8571582,0.428546906 L9.42858267,0.428546906 C8.95983211,0.428546906 8.57143879,0.816940226 8.57143879,1.28569078 L8.57143879,7.28569794 L5.14286327,7.28569794 C4.79464857,7.28569794 4.48661249,7.49998391 4.35268376,7.80801999 C4.21875503,8.12944894 4.28571939,8.50444939 4.54018398,8.74552111 L10.5401911,14.7455283 C10.7009056,14.9196356 10.9285845,14.9999928 11.1428704,14.9999928 C11.3571564,14.9999928 11.5848352,14.9196356 11.7455497,14.7455283 L17.7455569,8.74552111 C18.0000215,8.50444939 18.0669858,8.12944894 17.9330571,7.80801999 Z" id=""></path>
        </g>
    </g>
</svg>