<?xml version="1.0" encoding="UTF-8"?>
<svg width="41px" height="36px" viewBox="0 0 41 36" version="1.1" xmlns="http://www.w3.org/2000/svg" xmlns:xlink="http://www.w3.org/1999/xlink">
    <!-- Generator: Sketch 41.2 (35397) - http://www.bohemiancoding.com/sketch -->
    <title>Combined Shape</title>
    <desc>Created with Sketch.</desc>
    <defs></defs>
    <g id="icon" stroke="none" stroke-width="1" fill="none" fill-rule="evenodd">
        <g id="Artboard-41" fill="#B2B9C7">
            <path d="M19.8306274,6.01181416 L1.70901434,6.01181416 C0.599199645,6.01181416 -0.290692933,6.90349147 -0.290692933,8.00343118 L-0.290692933,34.0201971 C-0.290692933,35.1139737 0.604606511,36.0118142 1.70901434,36.0118142 L33.7095998,36.0118142 C34.8194145,36.0118142 35.7093071,35.1201368 35.7093071,34.0201971 L35.7093071,19.1331345 L31.7093071,19.1331345 L31.7093071,32.0118142 L3.70930707,32.0118142 L3.70930707,10.0118142 L19.8306274,10.0118142 L19.8306274,6.01181416 L19.8306274,6.01181416 Z M19.5850281,15.3930191 L33.7341973,1.24384992 C35.29241,-0.314362704 37.8250994,-0.308035108 39.384018,1.2508835 C40.9461152,2.81298067 40.9507593,5.34099651 39.3910516,6.90070417 L25.2418824,21.0498734 L19.5850281,15.3930191 Z M17.4637078,17.5143395 L23.120562,23.1711937 L17.0708707,24.1925702 L17.4637078,17.5143395 Z" id="Combined-Shape"></path>
        </g>
    </g>
</svg>