<?xml version="1.0" encoding="UTF-8"?>
<svg width="25px" height="6px" viewBox="0 0 25 6" version="1.1" xmlns="http://www.w3.org/2000/svg" xmlns:xlink="http://www.w3.org/1999/xlink">
    <!-- Generator: Sketch 40.3 (33839) - http://www.bohemiancoding.com/sketch -->
    <title>Combined Shape</title>
    <desc>Created with Sketch.</desc>
    <defs></defs>
    <g id="icon" stroke="none" stroke-width="1" fill="none" fill-rule="evenodd">
        <g id="Artboard-23" fill="#B2B9C7">
            <path d="M5.60758145,2.80308978 C5.60758145,4.3528851 4.3528851,5.60758145 2.80449167,5.60758145 C1.25469635,5.60758145 0,4.3528851 0,2.80308978 C0,1.25469635 1.25469635,0 2.80449167,0 C4.3528851,0 5.60758145,1.25469635 5.60758145,2.80308978 Z M15.3037907,2.80308978 C15.3037907,4.3528851 14.0490944,5.60758145 12.5007009,5.60758145 C10.9509056,5.60758145 9.69620927,4.3528851 9.69620927,2.80308978 C9.69620927,1.25469635 10.9509056,0 12.5007009,0 C14.0490944,0 15.3037907,1.25469635 15.3037907,2.80308978 Z M25,2.80308978 C25,4.3528851 23.7453037,5.60758145 22.1969102,5.60758145 C20.6471149,5.60758145 19.3924185,4.3528851 19.3924185,2.80308978 C19.3924185,1.25469635 20.6471149,0 22.1969102,0 C23.7453037,0 25,1.25469635 25,2.80308978 Z" id="Combined-Shape"></path>
        </g>
    </g>
</svg>