<?xml version="1.0" encoding="UTF-8"?>
<svg width="25px" height="25px" viewBox="0 0 25 25" version="1.1" xmlns="http://www.w3.org/2000/svg" xmlns:xlink="http://www.w3.org/1999/xlink">
    <!-- Generator: Sketch 41 (35326) - http://www.bohemiancoding.com/sketch -->
    <title>Combined Shape</title>
    <desc>Created with Sketch.</desc>
    <defs></defs>
    <g id="icon" stroke="none" stroke-width="1" fill="none" fill-rule="evenodd">
        <g id="Artboard-37" fill="#B2B9C7">
            <path d="M12.5,0 C5.6075,0 0,5.6075 0,12.5 C0,19.3925 5.6075,25 12.5,25 C19.3925,25 25,19.3925 25,12.5 C25,5.6075 19.3925,0 12.5,0 Z M12.5,22.5 C6.98625,22.5 2.5,18.01375 2.5,12.5 C2.5,6.98625 6.98625,2.5 12.5,2.5 C18.01375,2.5 22.5,6.98625 22.5,12.5 C22.5,18.01375 18.01375,22.5 12.5,22.5 Z M12.5,12.2936875 C10.431875,12.2936875 8.75,14.2568125 8.75,16.6686875 C8.75,19.0805625 10.431875,21.0436875 12.5,21.0436875 C14.568125,21.0436875 16.25,19.0805625 16.25,16.6686875 C16.25,14.2568125 14.568125,12.2936875 12.5,12.2936875 Z M12.5,18.5436875 C11.834375,18.5436875 11.25,17.6674375 11.25,16.6686875 C11.25,15.6699375 11.834375,14.7936875 12.5,14.7936875 C13.165625,14.7936875 13.75,15.6699375 13.75,16.6686875 C13.75,17.6674375 13.165625,18.5436875 12.5,18.5436875 Z M10.546875,8.808375 C10.546875,7.77275 9.7075,6.933375 8.671875,6.933375 C7.63625,6.933375 6.796875,7.77275 6.796875,8.808375 C6.796875,9.844 7.63625,10.683375 8.671875,10.683375 C9.7075,10.683375 10.546875,9.844 10.546875,8.808375 Z M16.2689375,6.933375 C15.2333125,6.933375 14.3939375,7.77275 14.3939375,8.808375 C14.3939375,9.844 15.2333125,10.683375 16.2689375,10.683375 C17.3045625,10.683375 18.1439375,9.844 18.1439375,8.808375 C18.1439375,7.77275 17.3045625,6.933375 16.2689375,6.933375 Z" id="Combined-Shape"></path>
        </g>
    </g>
</svg>