<?xml version="1.0" encoding="UTF-8"?>
<svg width="25px" height="25px" viewBox="0 0 25 25" version="1.1" xmlns="http://www.w3.org/2000/svg" xmlns:xlink="http://www.w3.org/1999/xlink">
    <!-- Generator: Sketch 41 (35326) - http://www.bohemiancoding.com/sketch -->
    <title>Combined Shape</title>
    <desc>Created with Sketch.</desc>
    <defs></defs>
    <g id="icon" stroke="none" stroke-width="1" fill="none" fill-rule="evenodd">
        <g id="Artboard-33" fill="#B2B9C7">
            <path d="M12.5,0 C5.6075,0 0,5.6075 0,12.5 C0,19.3925 5.6075,25 12.5,25 C19.3925,25 25,19.3925 25,12.5 C25,5.6075 19.3925,0 12.5,0 Z M12.5,22.5 C6.98625,22.5 2.5,18.01375 2.5,12.5 C2.5,6.98625 6.98625,2.5 12.5,2.5 C18.01375,2.5 22.5,6.98625 22.5,12.5 C22.5,18.01375 18.01375,22.5 12.5,22.5 Z M12.5,17.60375 C11.0225,17.60375 9.61875,16.964375 8.6475,15.848125 L6.76125,17.48875 C8.2075,19.15125 10.299375,20.10375 12.5,20.10375 C14.700625,20.10375 16.79125,19.151875 18.236875,17.49125 L16.350625,15.849375 C15.380625,16.965 13.976875,17.60375 12.5,17.60375 Z M11.06875,10.2329375 C11.695,9.6066875 11.695,8.5923125 11.06875,7.9660625 C10.4425,7.3398125 9.428125,7.3398125 8.801875,7.9660625 C8.175625,7.3398125 7.160625,7.3398125 6.535,7.9660625 C5.90875,8.5916875 5.90875,9.6066875 6.535,10.2329375 L8.801875,12.4998125 L11.06875,10.2329375 Z M16.1975,7.9659375 C15.571875,7.3396875 14.556875,7.3396875 13.930625,7.9659375 C13.305,8.5921875 13.305,9.6065625 13.930625,10.2328125 L16.1975,12.4996875 L18.464375,10.2328125 C19.090625,9.6071875 19.090625,8.5921875 18.464375,7.9659375 C17.83875,7.3396875 16.82375,7.3396875 16.1975,7.9659375 Z" id="Combined-Shape"></path>
        </g>
    </g>
</svg>