<?xml version="1.0" encoding="UTF-8"?>
<svg width="25px" height="25px" viewBox="0 0 25 25" version="1.1" xmlns="http://www.w3.org/2000/svg" xmlns:xlink="http://www.w3.org/1999/xlink">
    <!-- Generator: Sketch 41 (35326) - http://www.bohemiancoding.com/sketch -->
    <title>Combined Shape</title>
    <desc>Created with Sketch.</desc>
    <defs></defs>
    <g id="icon" stroke="none" stroke-width="1" fill="none" fill-rule="evenodd">
        <g id="Artboard-36" fill="#B2B9C7">
            <path d="M12.5,0 C5.6075,0 0,5.6075 0,12.5 C0,19.3925 5.6075,25 12.5,25 C19.3925,25 25,19.3925 25,12.5 C25,5.6075 19.3925,0 12.5,0 Z M12.5,22.5 C6.98625,22.5 2.5,18.01375 2.5,12.5 C2.5,6.98625 6.98625,2.5 12.5,2.5 C18.01375,2.5 22.5,6.98625 22.5,12.5 C22.5,18.01375 18.01375,22.5 12.5,22.5 Z M12.5,14.3268125 C10.299375,14.3268125 8.208125,15.2793125 6.76125,16.9411875 L8.6475,18.5830625 C9.61875,17.4668125 11.023125,16.8268125 12.5,16.8268125 C13.97625,16.8268125 15.38,17.4661875 16.351875,18.5818125 L18.236875,16.9399375 C16.790625,15.2786875 14.7,14.3268125 12.5,14.3268125 Z M7.4463125,11.910375 L8.7306875,10.626 L10.0144375,11.910375 L11.7819375,10.142875 L10.4981875,8.8585 L11.7819375,7.57475 L10.0144375,5.806625 L8.7306875,7.091 L7.4463125,5.806625 L5.6788125,7.57475 L6.9631875,8.8585 L5.6788125,10.142875 L7.4463125,11.910375 Z M17.4560625,5.806875 L16.1716875,7.09125 L14.8879375,5.806875 L13.1204375,7.574375 L14.4041875,8.85875 L13.1204375,10.1425 L14.8879375,11.910625 L16.1716875,10.62625 L17.4560625,11.910625 L19.2235625,10.1425 L17.9391875,8.85875 L19.2235625,7.574375 L17.4560625,5.806875 Z" id="Combined-Shape"></path>
        </g>
    </g>
</svg>