<?xml version="1.0" encoding="UTF-8"?>
<svg width="160px" height="200px" viewBox="0 0 160 200" version="1.1" xmlns="http://www.w3.org/2000/svg" xmlns:xlink="http://www.w3.org/1999/xlink">
    <!-- Generator: Sketch 40.3 (33839) - http://www.bohemiancoding.com/sketch -->
    <title>Combined Shape</title>
    <desc>Created with Sketch.</desc>
    <defs></defs>
    <g id="icon" stroke="none" stroke-width="1" fill="none" fill-rule="evenodd">
        <g id="Artboard-4" fill="#FFFFFF">
            <path d="M159.997,122.149 C159.997,102.837 152.887,84.373 139.983,70.054 L139.983,69.516 L155.221,69.516 L155.221,65.688 L139.983,65.688 L139.981,39.824 L139.983,24.888 L139.981,13.962 C139.981,6.265 133.72,0.002 126.024,0.002 C120.9,0.002 116.412,2.777 113.985,6.904 C113.389,5.889 112.658,4.945 111.804,4.091 C109.17,1.454 105.664,0.002 101.935,0.002 C96.811,0.002 92.325,2.777 89.896,6.904 C89.3,5.889 88.571,4.945 87.717,4.091 C85.081,1.454 81.577,0.002 77.842,0.002 C72.717,0.002 68.227,2.781 65.802,6.913 C63.374,2.781 58.882,0.002 53.753,0 C46.059,0.002 39.799,6.265 39.799,13.96 L39.797,16.93 C27.299,17.907 17.43,28.395 17.43,41.144 L17.43,62.784 C17.43,67.408 18.622,71.267 20.584,74.577 C14.579,82.338 10.174,90.957 7.483,100.139 L0,100.139 L0,103.967 L6.473,103.967 C5.075,109.849 4.346,115.932 4.346,122.149 C4.346,139.562 10.093,155.658 19.787,168.64 L7.734,168.64 L7.734,172.468 L22.858,172.468 C32.121,183.376 44.324,191.704 58.237,196.214 C58.271,196.227 58.298,196.252 58.333,196.263 C58.472,196.307 58.612,196.345 58.751,196.388 C59.102,196.5 59.458,196.601 59.812,196.707 C60.565,196.933 61.319,197.15 62.077,197.352 C62.518,197.47 62.959,197.584 63.402,197.694 C64.134,197.876 64.868,198.044 65.604,198.204 C66.018,198.294 66.43,198.39 66.847,198.474 C67.951,198.695 69.059,198.896 70.171,199.069 C70.474,199.116 70.78,199.151 71.084,199.194 C71.959,199.32 72.836,199.434 73.715,199.529 C74.129,199.574 74.544,199.612 74.96,199.65 C75.785,199.727 76.612,199.79 77.44,199.84 C77.819,199.863 78.197,199.889 78.577,199.906 C79.773,199.961 80.971,199.997 82.171,199.997 C83.369,199.997 84.561,199.96 85.752,199.906 C86.087,199.891 86.42,199.871 86.754,199.851 C87.687,199.797 88.618,199.726 89.546,199.638 C89.82,199.612 90.096,199.591 90.369,199.562 C91.552,199.438 92.73,199.29 93.902,199.112 C94.05,199.09 94.196,199.062 94.344,199.038 C95.39,198.874 96.431,198.686 97.467,198.479 C97.71,198.43 97.952,198.381 98.194,198.33 C99.32,198.094 100.441,197.838 101.555,197.552 C101.573,197.547 101.592,197.543 101.611,197.538 C104.065,196.907 106.483,196.149 108.862,195.279 C108.887,195.27 108.912,195.261 108.936,195.252 C114.688,193.144 120.203,190.359 125.368,186.905 C125.43,186.863 125.479,186.808 125.535,186.76 C134.636,180.628 142.366,172.617 148.192,163.298 L158.083,163.298 L158.083,159.47 L150.448,159.47 C156.53,148.382 159.997,135.664 159.997,122.149 Z M156.17,122.149 C156.17,135.754 152.465,148.504 146.035,159.47 L126.219,159.47 L126.22,156.633 L133.875,156.633 C134.932,156.633 135.788,155.777 135.788,154.719 L135.788,121.448 C135.788,120.39 134.932,119.534 133.875,119.534 L126.219,119.533 L126.216,102.438 L126.218,99.195 C126.218,95.509 129.178,92.584 132.313,89.489 C135.908,85.936 139.983,81.91 139.983,76.015 L139.983,75.974 C150.445,89.06 156.17,105.261 156.17,122.149 Z M96.699,194.729 C95.751,194.918 94.797,195.089 93.836,195.241 C93.636,195.273 93.437,195.309 93.236,195.339 C92.129,195.506 91.014,195.649 89.891,195.766 C89.684,195.787 89.474,195.802 89.266,195.822 C88.345,195.91 87.419,195.98 86.488,196.034 C86.18,196.051 85.873,196.069 85.565,196.083 C84.439,196.134 83.309,196.169 82.171,196.169 C81.038,196.169 79.913,196.134 78.791,196.084 C78.46,196.069 78.129,196.049 77.798,196.029 C76.945,195.979 76.096,195.914 75.252,195.835 C74.952,195.807 74.651,195.784 74.351,195.753 C73.282,195.64 72.22,195.505 71.165,195.347 C70.845,195.299 70.528,195.24 70.209,195.188 C69.435,195.062 68.664,194.925 67.898,194.774 C67.507,194.697 67.117,194.619 66.728,194.536 C65.93,194.366 65.137,194.181 64.348,193.985 C64.078,193.918 63.806,193.859 63.537,193.789 C62.627,193.552 61.727,193.289 60.831,193.018 L60.833,163.264 C64.274,164.402 66.852,167.257 68.503,171.793 C73.614,185.847 78.212,188.024 82.033,188.299 C82.08,188.303 82.127,188.304 82.171,188.304 C82.786,188.304 83.366,188.009 83.726,187.506 C84.115,186.964 84.193,186.26 83.935,185.647 C81.138,179.013 80.497,169.191 81.833,167.941 C82.116,167.686 82.725,167.263 83.574,166.803 C83.608,166.812 83.643,166.818 83.677,166.827 C84.037,166.917 84.398,167.001 84.762,167.078 C84.93,167.113 85.099,167.145 85.268,167.178 C85.586,167.239 85.905,167.299 86.226,167.35 C86.459,167.387 86.694,167.417 86.929,167.449 C87.2,167.485 87.47,167.524 87.743,167.552 C88.061,167.586 88.381,167.609 88.701,167.633 C88.903,167.648 89.104,167.668 89.307,167.679 C89.839,167.708 90.374,167.724 90.912,167.724 C91.449,167.724 91.983,167.708 92.513,167.68 C92.731,167.668 92.948,167.646 93.166,167.63 C93.405,167.612 93.647,167.599 93.885,167.575 C94.219,168.239 94.47,169.009 94.629,169.922 C95.815,176.849 98.355,178.742 100.395,180.264 C101.655,181.204 102.415,181.77 102.798,183.684 C103.543,187.403 103.172,191.074 102.455,193.319 C100.761,193.803 99.05,194.243 97.309,194.606 C97.106,194.649 96.902,194.688 96.699,194.729 Z M126.218,181.587 L126.219,163.298 L143.648,163.298 C138.92,170.343 133.016,176.533 126.218,181.587 Z M27.968,172.468 L39.622,172.468 L39.622,168.64 L24.647,168.64 C14.355,155.923 8.173,139.747 8.173,122.149 C8.173,115.922 8.932,109.835 10.405,103.967 L56.03,103.967 C56.65,105.395 57.006,106.934 57.006,108.637 L57.005,115.03 L57.006,119.533 L47.952,119.534 C46.894,119.534 46.038,120.39 46.038,121.448 L46.038,130.283 L24.634,130.283 L24.634,134.111 L46.038,134.111 L46.036,154.719 C46.036,155.228 46.238,155.714 46.597,156.072 C46.956,156.431 47.442,156.633 47.95,156.633 L57.006,156.633 L57.005,191.755 C45.829,187.7 35.907,181.019 27.968,172.468 Z M22.901,77.844 C27.38,83.244 33.945,87.061 40.046,90.603 C45.436,93.731 50.376,96.612 53.52,100.139 L11.478,100.139 C13.947,92.175 17.783,84.671 22.901,77.844 Z M21.256,41.144 C21.256,35.678 23.384,30.54 27.247,26.677 C30.656,23.267 35.058,21.214 39.799,20.776 L39.799,61.442 C39.799,62.5 40.655,63.355 41.713,63.355 C42.77,63.355 43.626,62.5 43.626,61.442 L43.626,18.769 L43.626,13.962 C43.626,8.375 48.17,3.829 53.753,3.828 C59.342,3.829 63.888,8.375 63.888,13.962 L63.888,56.276 C63.888,57.333 64.744,58.189 65.802,58.189 C66.859,58.189 67.715,57.333 67.715,56.276 L67.715,13.962 C67.715,8.375 72.257,3.829 77.85,3.829 C80.555,3.829 83.098,4.884 85.012,6.798 C86.925,8.712 87.977,11.255 87.977,13.962 L87.979,56.277 C87.979,57.335 88.836,58.191 89.892,58.191 C90.95,58.191 91.806,57.333 91.806,56.277 L91.804,13.962 C91.806,8.375 96.352,3.829 101.938,3.829 C107.523,3.829 112.066,8.375 112.066,13.962 C112.066,13.968 112.067,13.974 112.068,13.98 L112.07,56.276 C112.07,57.333 112.927,58.189 113.983,58.189 C115.04,58.189 115.896,57.332 115.896,56.276 L115.894,13.964 C115.894,13.96 115.893,13.956 115.893,13.952 C115.898,8.37 120.44,3.829 126.024,3.829 C131.608,3.829 136.155,8.375 136.156,13.964 L136.156,65.688 L118.632,65.688 L118.632,69.516 L136.156,69.516 L136.156,76.015 C136.156,80.31 132.984,83.444 129.624,86.766 C126.068,90.278 122.391,93.911 122.391,99.193 L122.389,102.436 L122.393,119.533 L114.62,119.532 L113.999,119.532 C112.972,118.256 111.844,117.067 110.623,115.977 C110.495,115.861 110.363,115.751 110.232,115.638 C110.005,115.442 109.777,115.247 109.544,115.058 C109.304,114.862 109.061,114.673 108.816,114.485 C108.7,114.397 108.584,114.309 108.466,114.222 C108.144,113.983 107.817,113.75 107.486,113.524 C107.47,113.514 107.453,113.503 107.437,113.492 C105.061,111.882 102.468,110.634 99.727,109.782 C99.72,109.78 99.713,109.778 99.705,109.775 C99.286,109.645 98.863,109.525 98.436,109.414 C98.349,109.391 98.262,109.369 98.174,109.347 C97.8,109.253 97.424,109.165 97.045,109.085 C96.892,109.053 96.738,109.024 96.585,108.994 C96.253,108.93 95.921,108.868 95.587,108.815 C95.368,108.781 95.148,108.753 94.927,108.723 C94.643,108.684 94.36,108.644 94.073,108.614 C93.771,108.582 93.465,108.56 93.16,108.537 C92.944,108.521 92.731,108.499 92.515,108.488 C91.996,108.46 91.475,108.445 90.949,108.444 C90.938,108.444 90.926,108.443 90.914,108.443 L90.912,108.443 L90.911,108.443 C90.373,108.443 89.84,108.459 89.31,108.488 C89.1,108.499 88.892,108.52 88.683,108.535 C88.371,108.559 88.058,108.581 87.748,108.614 C87.468,108.643 87.192,108.683 86.915,108.72 C86.687,108.751 86.459,108.78 86.233,108.816 C85.905,108.868 85.579,108.928 85.255,108.991 C85.093,109.023 84.931,109.053 84.77,109.087 C84.399,109.165 84.032,109.251 83.665,109.343 C83.568,109.368 83.47,109.392 83.373,109.418 C82.956,109.527 82.543,109.644 82.133,109.771 C82.112,109.777 82.092,109.784 82.071,109.791 C79.371,110.633 76.815,111.86 74.467,113.44 C74.409,113.48 74.35,113.518 74.291,113.558 C73.998,113.758 73.708,113.965 73.421,114.177 C73.258,114.297 73.096,114.419 72.936,114.542 C72.734,114.697 72.533,114.854 72.334,115.015 C72.037,115.255 71.747,115.502 71.459,115.752 C71.39,115.814 71.319,115.872 71.25,115.934 C70.011,117.036 68.866,118.239 67.825,119.532 L60.833,119.532 L60.831,116.254 L60.833,108.637 C60.833,106.957 60.56,105.414 60.1,103.967 L77.491,103.967 L77.491,100.139 L58.307,100.139 C54.846,94.769 48.333,90.987 41.967,87.293 C31.785,81.382 21.256,75.271 21.256,62.784 L21.256,41.144 Z M113.58,189.151 C114.053,187.218 114.221,184.859 114.132,181.867 C113.856,172.591 117.182,169.219 118.849,169.04 C119.066,169.04 119.911,169.123 122.392,170.084 L122.391,184.233 C119.578,186.062 116.638,187.71 113.58,189.151 Z M53.8039,46.0442 C54.8609,46.0442 55.7169,45.1862 55.7169,44.1302 L55.7149,25.1832 C55.7149,24.1252 54.8579,23.2692 53.8019,23.2692 C52.7439,23.2692 51.8889,24.1272 51.8889,25.1832 L51.8909,44.1302 C51.8909,45.1882 52.7479,46.0442 53.8039,46.0442 Z M72.743,43.7323 C73.799,43.7323 74.656,42.8763 74.656,41.8183 L74.658,32.7043 L80.994,44.3503 C81.334,44.9793 81.987,45.3513 82.674,45.3513 C82.844,45.3513 83.018,45.3283 83.188,45.2803 C84.047,45.0403 84.627,44.2403 84.586,43.3493 L83.662,23.2453 C83.614,22.1893 82.682,21.3523 81.663,21.4213 C80.608,21.4693 79.791,22.3653 79.84,23.4213 L80.381,35.2163 L74.425,24.2693 C74.008,23.4973 73.119,23.1073 72.274,23.3293 C71.426,23.5443 70.832,24.3083 70.832,25.1833 L70.83,41.8183 C70.83,42.8743 71.686,43.7323 72.743,43.7323 Z M97.5418,44.1882 C97.5918,44.1922 97.6428,44.1942 97.6918,44.1942 C98.6818,44.1942 99.5208,43.4312 99.5968,42.4272 L99.9378,38.0092 L103.6518,42.1712 C104.0288,42.5962 104.5548,42.8102 105.0798,42.8102 C105.5338,42.8102 105.9898,42.6502 106.3538,42.3252 C107.1418,41.6202 107.2108,40.4112 106.5068,39.6222 L100.8978,33.3382 L108.1718,24.5572 C108.8448,23.7442 108.7328,22.5372 107.9178,21.8622 C107.1048,21.1892 105.8998,21.3012 105.2228,22.1162 L100.7448,27.5242 L101.2158,21.4042 C101.2958,20.3502 100.5068,19.4282 99.4548,19.3482 C98.3618,19.2662 97.4798,20.0572 97.3998,21.1092 L95.7818,42.1322 C95.7008,43.1862 96.4898,44.1082 97.5418,44.1882 Z M123.1493,42.8049 C123.1763,42.8089 123.2043,42.8089 123.2323,42.8089 C123.4973,42.8089 123.8673,42.7009 124.3063,42.4989 L124.3303,42.5379 C124.4113,42.4889 124.4873,42.4349 124.5603,42.3749 C127.3853,40.9479 132.6533,36.2559 133.5193,32.1939 C134.2023,29.0099 133.0943,24.5729 123.9513,21.5199 C123.3663,21.3199 122.7253,21.4229 122.2263,21.7819 C121.7283,22.1429 121.4323,22.7199 121.4323,23.3349 L121.4323,40.7509 C121.4173,40.9379 121.4283,41.1309 121.4723,41.3189 C121.6533,42.1249 122.3293,42.7229 123.1493,42.8049 Z M125.2593,26.1219 C127.5743,27.1609 129.6483,28.5889 129.8413,30.4079 C130.0703,32.5959 127.6343,35.2669 125.2593,37.2069 L125.2593,26.1219 Z M79.019,183.022 C77.19,181.408 74.815,177.952 72.098,170.485 C69.374,162.999 64.744,160.209 60.833,159.282 L60.833,156.633 L67.824,156.633 C68.867,157.93 70.017,159.138 71.261,160.243 C71.313,160.289 71.367,160.334 71.419,160.38 C71.724,160.647 72.032,160.908 72.347,161.162 C72.534,161.314 72.724,161.462 72.915,161.609 C73.087,161.741 73.261,161.872 73.436,162.001 C73.714,162.205 73.994,162.405 74.277,162.599 C74.348,162.648 74.42,162.694 74.491,162.742 C75.952,163.723 77.492,164.569 79.099,165.269 C76.361,168.119 77.286,176.734 79.019,183.022 Z M122.392,159.47 L111.397,159.47 C112.325,158.582 113.195,157.635 114.001,156.633 L122.393,156.633 L122.392,159.47 Z M110.306,181.981 C110.477,187.67 109.61,189.96 108.225,191.419 C108.092,191.469 107.961,191.526 107.827,191.576 C107.65,191.642 107.474,191.705 107.297,191.769 C107.099,191.841 106.896,191.902 106.698,191.973 C107.17,189.154 107.139,185.875 106.55,182.933 C105.879,179.58 104.181,178.313 102.68,177.195 C100.958,175.909 99.328,174.696 98.4,169.272 C98.252,168.422 98.045,167.643 97.78,166.922 C97.909,166.891 98.037,166.855 98.166,166.822 C98.259,166.799 98.352,166.775 98.445,166.751 C98.864,166.641 99.281,166.523 99.694,166.395 C99.712,166.39 99.73,166.384 99.748,166.378 C102.454,165.535 105.014,164.305 107.366,162.721 C107.42,162.685 107.475,162.649 107.528,162.613 C107.827,162.409 108.122,162.198 108.413,161.983 C108.569,161.868 108.724,161.752 108.877,161.634 C109.087,161.473 109.296,161.31 109.502,161.143 C109.783,160.916 110.058,160.682 110.331,160.444 C110.383,160.399 110.437,160.357 110.489,160.312 L110.489,163.298 L122.392,163.298 L122.391,166.005 C119.915,165.15 119.037,165.162 118.424,165.235 C115.235,165.58 109.936,169.496 110.306,181.981 Z M131.962,123.362 L131.962,152.805 L124.306,152.805 L116.615,152.805 C117.547,151.184 118.329,149.468 118.944,147.673 C118.972,147.593 118.999,147.512 119.026,147.431 C119.198,146.916 119.357,146.396 119.501,145.869 C119.519,145.802 119.539,145.736 119.557,145.67 C119.711,145.09 119.848,144.505 119.966,143.913 C119.985,143.821 119.998,143.729 120.016,143.638 C120.107,143.158 120.187,142.674 120.254,142.186 C120.279,142.012 120.3,141.838 120.321,141.663 C120.373,141.233 120.415,140.8 120.449,140.365 C120.461,140.197 120.477,140.031 120.487,139.863 C120.522,139.273 120.545,138.681 120.545,138.083 C120.545,137.486 120.522,136.894 120.487,136.306 C120.477,136.135 120.461,135.966 120.448,135.797 C120.415,135.363 120.373,134.932 120.321,134.504 C120.3,134.329 120.279,134.155 120.254,133.981 C120.186,133.487 120.105,132.998 120.012,132.513 C119.996,132.429 119.984,132.344 119.967,132.259 C119.847,131.662 119.709,131.072 119.554,130.488 C119.54,130.434 119.523,130.38 119.508,130.326 C119.361,129.784 119.197,129.25 119.021,128.721 C118.997,128.65 118.973,128.579 118.949,128.508 C118.332,126.708 117.548,124.986 116.614,123.361 L124.306,123.362 C124.309,123.362 124.312,123.361 124.314,123.361 L131.962,123.362 Z M76.092,116.972 C76.258,116.855 76.422,116.738 76.59,116.625 C76.854,116.448 77.121,116.277 77.391,116.11 C77.475,116.058 77.559,116.006 77.643,115.955 C77.954,115.768 78.269,115.586 78.588,115.411 C78.617,115.395 78.647,115.38 78.676,115.364 C80.443,114.408 82.334,113.655 84.317,113.13 C84.395,113.109 84.473,113.087 84.551,113.067 C84.862,112.988 85.178,112.917 85.494,112.849 C85.643,112.817 85.793,112.786 85.943,112.757 C86.218,112.703 86.495,112.653 86.774,112.608 C86.978,112.575 87.184,112.546 87.389,112.518 C87.63,112.485 87.871,112.452 88.114,112.426 C88.383,112.397 88.655,112.376 88.926,112.355 C89.116,112.341 89.305,112.322 89.496,112.312 C89.958,112.287 90.421,112.272 90.887,112.272 C90.897,112.272 90.906,112.271 90.916,112.271 C91.396,112.271 91.873,112.287 92.349,112.313 C92.507,112.321 92.663,112.337 92.82,112.349 C93.13,112.371 93.439,112.396 93.747,112.429 C93.955,112.452 94.161,112.481 94.367,112.508 C94.613,112.541 94.858,112.576 95.103,112.616 C95.344,112.655 95.584,112.699 95.824,112.745 C96.019,112.782 96.214,112.823 96.408,112.865 C96.682,112.925 96.955,112.986 97.225,113.054 C97.359,113.088 97.492,113.125 97.626,113.161 C97.946,113.248 98.266,113.335 98.581,113.433 C98.582,113.433 98.582,113.434 98.583,113.434 C100.16,113.926 101.672,114.568 103.104,115.339 C103.16,115.369 103.215,115.398 103.271,115.429 C103.572,115.594 103.869,115.766 104.163,115.943 C104.265,116.004 104.365,116.066 104.465,116.129 C104.723,116.288 104.978,116.451 105.23,116.619 C105.406,116.738 105.578,116.861 105.751,116.983 C105.928,117.108 106.106,117.23 106.279,117.359 C108.232,118.821 109.999,120.574 111.52,122.594 L111.52,122.595 C113.215,124.852 114.511,127.315 115.385,129.912 C115.39,129.926 115.394,129.939 115.398,129.952 C115.611,130.586 115.797,131.229 115.959,131.878 C115.968,131.914 115.976,131.951 115.984,131.987 C116.131,132.588 116.255,133.197 116.358,133.81 C116.368,133.87 116.38,133.929 116.39,133.989 C116.488,134.596 116.559,135.209 116.613,135.825 C116.624,135.951 116.633,136.078 116.642,136.204 C116.688,136.827 116.718,137.453 116.718,138.083 C116.718,138.715 116.688,139.342 116.642,139.967 C116.633,140.09 116.625,140.214 116.614,140.337 C116.56,140.955 116.488,141.57 116.39,142.178 C116.38,142.238 116.368,142.297 116.358,142.357 C116.255,142.968 116.132,143.574 115.986,144.173 C115.976,144.213 115.968,144.254 115.958,144.293 C115.798,144.938 115.612,145.576 115.402,146.206 C115.395,146.226 115.388,146.247 115.381,146.267 C114.507,148.86 113.213,151.318 111.522,153.568 C111.236,153.947 110.94,154.315 110.638,154.675 C110.529,154.805 110.416,154.93 110.305,155.057 C110.113,155.277 109.919,155.496 109.721,155.709 C109.569,155.871 109.415,156.03 109.26,156.188 C109.104,156.347 108.945,156.504 108.786,156.659 C108.593,156.845 108.399,157.03 108.201,157.21 C108.095,157.307 107.987,157.4 107.879,157.495 C104.157,160.764 99.578,162.889 94.578,163.601 C94.509,163.611 94.447,163.639 94.381,163.656 C94.161,163.686 93.942,163.716 93.721,163.74 C93.441,163.771 93.16,163.793 92.878,163.814 C92.697,163.827 92.517,163.845 92.335,163.855 C91.863,163.881 91.389,163.896 90.912,163.896 C90.434,163.896 89.958,163.881 89.485,163.855 C89.315,163.846 89.147,163.829 88.978,163.816 C88.681,163.794 88.385,163.771 88.091,163.739 C87.872,163.715 87.654,163.685 87.436,163.655 C87.204,163.624 86.971,163.591 86.741,163.554 C86.487,163.512 86.234,163.467 85.983,163.418 C85.803,163.384 85.623,163.346 85.444,163.307 C85.156,163.245 84.869,163.18 84.584,163.108 C84.469,163.079 84.355,163.047 84.241,163.017 C84.155,162.994 84.071,162.968 83.986,162.944 C83.956,162.934 83.932,162.914 83.902,162.906 C79.252,161.591 75.02,158.933 71.772,155.335 C71.695,155.249 71.618,155.165 71.542,155.078 C71.13,154.61 70.733,154.128 70.356,153.629 C70.34,153.608 70.322,153.589 70.307,153.568 C68.609,151.312 67.311,148.847 66.436,146.246 C66.434,146.239 66.431,146.232 66.429,146.225 C66.215,145.586 66.027,144.939 65.864,144.285 C65.857,144.254 65.85,144.224 65.843,144.194 C65.694,143.585 65.569,142.969 65.465,142.349 C65.456,142.293 65.444,142.239 65.435,142.183 C65.337,141.573 65.265,140.957 65.211,140.337 C65.2,140.215 65.192,140.092 65.183,139.969 C65.137,139.344 65.107,138.717 65.106,138.084 C65.106,137.458 65.137,136.836 65.181,136.217 C65.191,136.083 65.2,135.948 65.212,135.814 C65.265,135.208 65.336,134.604 65.432,134.006 C65.444,133.927 65.46,133.849 65.474,133.771 C65.573,133.187 65.69,132.608 65.829,132.034 C65.844,131.975 65.856,131.915 65.871,131.856 C66.028,131.224 66.21,130.599 66.416,129.982 C66.428,129.947 66.44,129.912 66.452,129.877 C67.326,127.292 68.618,124.842 70.307,122.597 C71.829,120.575 73.596,118.821 75.55,117.358 C75.728,117.226 75.911,117.1 76.092,116.972 Z M49.864,134.111 L56.523,134.111 L56.523,130.283 L49.865,130.283 L49.865,123.362 L65.211,123.36 C64.279,124.981 63.497,126.696 62.882,128.49 C62.853,128.573 62.825,128.657 62.797,128.741 C62.629,129.246 62.473,129.757 62.331,130.274 C62.31,130.352 62.286,130.429 62.265,130.507 C62.114,131.079 61.978,131.657 61.861,132.242 C61.838,132.353 61.822,132.465 61.801,132.577 C61.714,133.035 61.638,133.496 61.573,133.961 C61.546,134.15 61.523,134.339 61.501,134.528 C61.451,134.941 61.411,135.357 61.378,135.776 C61.364,135.956 61.348,136.135 61.337,136.316 C61.302,136.902 61.28,137.49 61.28,138.084 C61.28,138.683 61.303,139.276 61.338,139.866 C61.348,140.032 61.363,140.197 61.376,140.362 C61.41,140.802 61.452,141.239 61.505,141.673 C61.525,141.842 61.546,142.011 61.569,142.179 C61.639,142.683 61.721,143.183 61.816,143.679 C61.831,143.753 61.842,143.828 61.856,143.903 C61.977,144.506 62.117,145.101 62.273,145.69 C62.284,145.732 62.297,145.773 62.309,145.815 C62.46,146.374 62.629,146.925 62.812,147.471 C62.83,147.526 62.849,147.581 62.868,147.636 C63.485,149.444 64.271,151.172 65.209,152.804 L58.92,152.803 C58.914,152.803 58.908,152.805 58.902,152.805 L49.863,152.805 L49.864,134.111 Z M90.9145,160.6159 C103.3345,160.6139 113.4375,150.5059 113.4375,138.0849 C113.4375,125.6589 103.3325,115.5509 90.9105,115.5509 C78.4925,115.5509 68.3875,125.6589 68.3855,138.0829 C68.3855,150.5059 78.4925,160.6139 90.9145,160.6159 Z M90.9105,119.3789 C101.2205,119.3789 109.6105,127.7709 109.6105,138.0849 C109.6105,148.3959 101.2225,156.7869 90.9145,156.7879 C80.6015,156.7869 72.2125,148.3959 72.2125,138.0829 C72.2145,127.7689 80.6015,119.3789 90.9105,119.3789 Z M76.8742,142.303 C77.1242,143.131 77.8832,143.665 78.7072,143.665 C78.8882,143.665 79.0732,143.639 79.2582,143.585 L91.4632,139.916 C92.2722,139.673 92.8252,138.927 92.8252,138.083 L92.8252,129.319 C92.8252,128.261 91.9702,127.405 90.9122,127.405 C89.8552,127.405 88.9992,128.261 88.9992,129.319 L88.9992,136.658 L78.1562,139.918 C77.1452,140.223 76.5712,141.29 76.8742,142.303 Z" id="Combined-Shape"></path>
        </g>
    </g>
</svg>