<?xml version="1.0" encoding="UTF-8"?>
<svg width="24px" height="19px" viewBox="0 0 24 19" version="1.1" xmlns="http://www.w3.org/2000/svg" xmlns:xlink="http://www.w3.org/1999/xlink">
    <!-- Generator: Sketch 41 (35326) - http://www.bohemiancoding.com/sketch -->
    <title></title>
    <desc>Created with Sketch.</desc>
    <defs></defs>
    <g id="icon" stroke="none" stroke-width="1" fill="none" fill-rule="evenodd">
        <g id="Artboard-30" fill="#F01414">
            <path d="M24.0000286,5.93748681 C23.5982424,6.37945163 23.1428847,6.76784495 22.6607413,7.10266677 C20.4241315,8.61606143 18.1741288,10.142849 15.9910905,11.723208 C14.8660892,12.5535661 13.4732303,13.5714245 12.0134072,13.5714245 L11.9866214,13.5714245 C10.5267983,13.5714245 9.13393946,12.5535661 8.00893812,11.723208 C5.8258998,10.1294561 3.57589712,8.61606143 1.35268018,7.10266677 C0.857143879,6.76784495 0.401786193,6.37945163 0,5.93748681 L0,16.5714281 C0,17.7500009 0.964286864,18.7142878 2.1428597,18.7142878 L21.8571689,18.7142878 C23.0357417,18.7142878 24.0000286,17.7500009 24.0000286,16.5714281 L24.0000286,5.93748681 Z M24.0000286,1.99998212 C24.0000286,0.821409285 23.0223489,-0.142877579 21.8571689,-0.142877579 L2.1428597,-0.142877579 C0.709822275,-0.142877579 0,0.982123762 0,2.29462533 C0,3.51337678 1.35268018,5.02677144 2.30357417,5.66962935 C4.37946951,7.11605965 6.48215058,8.56248994 8.55804592,10.0223131 C9.42858267,10.6249924 10.9017987,11.8571367 11.9866214,11.8571367 L12.0134072,11.8571367 C13.0982299,11.8571367 14.5714459,10.6249924 15.4419827,10.0223131 C17.517878,8.56248994 19.6205591,7.11605965 21.7098473,5.66962935 C22.8884201,4.85266409 24.0000286,3.49998391 24.0000286,1.99998212 Z" id=""></path>
        </g>
    </g>
</svg>