<?xml version="1.0" encoding="UTF-8"?>
<svg width="23px" height="15px" viewBox="0 0 23 15" version="1.1" xmlns="http://www.w3.org/2000/svg" xmlns:xlink="http://www.w3.org/1999/xlink">
    <!-- Generator: Sketch 40.3 (33839) - http://www.bohemiancoding.com/sketch -->
    <title></title>
    <desc>Created with Sketch.</desc>
    <defs></defs>
    <g id="icon" stroke="none" stroke-width="1" fill="none" fill-rule="evenodd">
        <g id="Artboard-16" fill="#4C5669">
            <path d="M14.434169,7.53349112 C14.434169,7.05134769 14.3839457,6.67969546 14.3136331,6.30804323 L7.36273199,6.30804323 L7.36273199,8.83929625 L11.5413084,8.83929625 C11.3705493,9.91407432 10.2756819,12.0134072 7.36273199,12.0134072 C4.85156828,12.0134072 2.8024587,9.93416363 2.8024587,7.36273199 C2.8024587,4.79130035 4.85156828,2.7120568 7.36273199,2.7120568 C8.79911763,2.7120568 9.75335984,3.32478075 10.2957712,3.8471028 L12.2946575,1.92857373 C11.0089417,0.723215148 9.35157365,0 7.36273199,0 C3.29464678,0 0,3.29464678 0,7.36273199 C0,11.4308172 3.29464678,14.725464 7.36273199,14.725464 C11.611621,14.725464 14.434169,11.7422015 14.434169,7.53349112 L14.434169,7.53349112 Z M23.1428847,6.30804323 L21.0435519,6.30804323 L21.0435519,4.20871037 L18.9341744,4.20871037 L18.9341744,6.30804323 L16.8348415,6.30804323 L16.8348415,8.41742075 L18.9341744,8.41742075 L18.9341744,10.5167536 L21.0435519,10.5167536 L21.0435519,8.41742075 L23.1428847,8.41742075 L23.1428847,6.30804323 Z" id=""></path>
        </g>
    </g>
</svg>