<?xml version="1.0" encoding="UTF-8"?>
<svg width="30px" height="20px" viewBox="0 0 30 20" version="1.1" xmlns="http://www.w3.org/2000/svg" xmlns:xlink="http://www.w3.org/1999/xlink">
    <!-- Generator: Sketch 40.3 (33839) - http://www.bohemiancoding.com/sketch -->
    <title>Combined Shape</title>
    <desc>Created with Sketch.</desc>
    <defs></defs>
    <g id="icon" stroke="none" stroke-width="1" fill="none" fill-rule="evenodd">
        <g id="Artboard-20" fill="#FFFFFF">
            <path d="M15.2252985,2.51326533 C13.8392327,2.51326533 12.7120332,3.64046483 12.7120332,5.02653066 C12.7120332,6.41259649 13.8392327,7.53979599 15.2252985,7.53979599 C16.6113644,7.53979599 17.7385639,6.41259649 17.7385639,5.02653066 C17.7385639,3.64046483 16.6113644,2.51326533 15.2252985,2.51326533 M15.2252985,10.0530613 C12.4537952,10.0530613 10.1987679,7.798034 10.1987679,5.02653066 C10.1987679,2.25502732 12.4537952,0 15.2252985,0 C17.9968019,0 20.2518292,2.25502732 20.2518292,5.02653066 C20.2518292,7.798034 17.9968019,10.0530613 15.2252985,10.0530613 Z M24.725253,20 L5.72999362,20 L5.72999362,16.1484209 L5.9561875,15.8242097 C8.07487017,12.7925834 11.5400347,10.982404 15.2263667,10.982404 C18.9139552,10.982404 22.3791198,12.7925834 24.4984308,15.8242097 L24.725253,16.1484209 L24.725253,20 Z M8.24325895,17.4867347 L22.2119876,17.4867347 L22.2119876,16.9539224 C20.5488343,14.7818329 17.9658259,13.4956693 15.2263667,13.4956693 C12.4881641,13.4956693 9.90578397,14.7818329 8.24325895,16.9539224 L8.24325895,17.4867347 Z M8.7353563,10.2580181 C6.31382516,10.2580181 4.34468177,8.28761808 4.34468177,5.86671526 C4.34468177,3.44518411 6.31382516,1.47541241 8.7353563,1.47541241 L8.7353563,3.98867774 C7.7005193,3.98867774 6.8579471,4.83124994 6.8579471,5.86671526 C6.8579471,6.90218057 7.7005193,7.74475277 8.7353563,7.74475277 L8.7353563,10.2580181 Z M4.41140897,18.5286088 L0,18.5286088 L0,15.0483646 L0.226822196,14.7235251 C1.55319797,12.8247532 3.5122883,11.4669616 5.74406791,10.9008485 L6.36233118,13.336831 C4.83803576,13.7232455 3.48401406,14.6129414 2.51326533,15.8563795 L2.51326533,16.0153435 L4.41140897,16.0153435 L4.41140897,18.5286088 Z M21.7189478,10.2580181 L21.7189478,7.74475277 C22.7544131,7.74475277 23.5969853,6.90218057 23.5969853,5.86671526 C23.5969853,4.83124994 22.7544131,3.98867774 21.7189478,3.98867774 L21.7189478,1.47541241 C24.140479,1.47541241 26.1102507,3.44518411 26.1102507,5.86671526 C26.1102507,8.28761808 24.140479,10.2580181 21.7189478,10.2580181 Z M30.4546183,18.5286088 L26.0432093,18.5286088 L26.0432093,16.0153435 L27.941353,16.0153435 L27.941353,15.8563795 C26.9699759,14.6123131 25.6165825,13.7232455 24.0922871,13.336831 L24.7105504,10.9008485 C26.9410734,11.4669616 28.900792,12.8247532 30.2284244,14.7235251 L30.4546183,15.0477363 L30.4546183,18.5286088 Z" id="Combined-Shape"></path>
        </g>
    </g>
</svg>