<?xml version="1.0" encoding="UTF-8"?>
<svg width="15px" height="13px" viewBox="0 0 15 13" version="1.1" xmlns="http://www.w3.org/2000/svg" xmlns:xlink="http://www.w3.org/1999/xlink">
    <!-- Generator: Sketch 40.3 (33839) - http://www.bohemiancoding.com/sketch -->
    <title>Fill 1</title>
    <desc>Created with Sketch.</desc>
    <defs></defs>
    <g id="icon" stroke="none" stroke-width="1" fill="none" fill-rule="evenodd">
        <g id="Artboard-2" fill="#F01414">
            <path d="M4.26110717,1.71020198 C3.66397828,1.71020198 3.05354043,1.97904307 2.5868394,2.4484059 C1.39879247,3.64399458 1.39879247,5.58887797 2.5868394,6.78446665 L7.49829106,11.2882204 L12.4376915,6.75740508 C13.5977896,5.58887797 13.5977896,3.64399458 12.4092991,2.4484059 C11.9430417,1.97904307 11.3326038,1.71020198 10.7354749,1.71020198 C9.68850304,1.71020198 8.82164579,2.49587454 8.29505442,3.92348284 C8.17128105,4.25886875 7.85364042,4.48112846 7.49829106,4.48112846 C7.14294169,4.48112846 6.82485743,4.25886875 6.70108406,3.92348284 C6.17493632,2.49587454 5.30807907,1.71020198 4.26110717,1.71020198 M7.49829106,13.3005358 C7.293333,13.3005358 7.08748767,13.2260056 6.9251183,13.0769452 L1.4129887,8.02086948 C-0.466237141,6.1314401 -0.466237141,3.10098881 1.38459624,1.23906463 C2.16716337,0.45161754 3.2159098,0 4.26110717,0 C5.55163313,0 6.67845882,0.634837623 7.49829106,1.78783761 C8.31812329,0.634837623 9.44450535,0 10.7354749,0 C11.7806723,0 12.8289751,0.45161754 13.6115422,1.23906463 C15.4628193,3.10098881 15.4628193,6.1314401 13.6115422,7.99380792 L8.07102018,13.0769452 C7.90865081,13.2260056 7.70324911,13.3005358 7.49829106,13.3005358" id="Fill-1"></path>
        </g>
    </g>
</svg>