<?xml version="1.0" encoding="UTF-8"?>
<svg width="16px" height="16px" viewBox="0 0 16 16" version="1.1" xmlns="http://www.w3.org/2000/svg" xmlns:xlink="http://www.w3.org/1999/xlink">
    <!-- Generator: Sketch 40.3 (33839) - http://www.bohemiancoding.com/sketch -->
    <title></title>
    <desc>Created with Sketch.</desc>
    <defs></defs>
    <g id="icon" stroke="none" stroke-width="1" fill="none" fill-rule="evenodd">
        <g id="Artboard-17" fill="#FFFFFF">
            <path d="M10.2863543,7.7149227 C10.2863543,9.13121903 9.13121903,10.2863543 7.7149227,10.2863543 C6.29862637,10.2863543 5.14349106,9.13121903 5.14349106,7.7149227 C5.14349106,6.29862637 6.29862637,5.14349106 7.7149227,5.14349106 C9.13121903,5.14349106 10.2863543,6.29862637 10.2863543,7.7149227 L10.2863543,7.7149227 Z M11.6725167,7.7149227 C11.6725167,5.52518795 9.90465745,3.7573287 7.7149227,3.7573287 C5.52518795,3.7573287 3.7573287,5.52518795 3.7573287,7.7149227 C3.7573287,9.90465745 5.52518795,11.6725167 7.7149227,11.6725167 C9.90465745,11.6725167 11.6725167,9.90465745 11.6725167,7.7149227 L11.6725167,7.7149227 Z M12.7573394,3.59661422 C12.7573394,3.08433682 12.3455086,2.67250598 11.8332312,2.67250598 C11.3209538,2.67250598 10.9091229,3.08433682 10.9091229,3.59661422 C10.9091229,4.10889162 11.3209538,4.52072247 11.8332312,4.52072247 C12.3455086,4.52072247 12.7573394,4.10889162 12.7573394,3.59661422 L12.7573394,3.59661422 Z M7.7149227,1.38679016 C8.83992404,1.38679016 11.2506412,1.29638826 12.2651513,1.69817446 C12.6167143,1.83879963 12.8778753,2.00955876 13.149081,2.28076444 C13.4202866,2.55197012 13.5910458,2.81313114 13.7316709,3.16469406 C14.1334571,4.1792042 14.0430552,6.58992136 14.0430552,7.7149227 C14.0430552,8.83992404 14.1334571,11.2506412 13.7316709,12.2651513 C13.5910458,12.6167143 13.4202866,12.8778753 13.149081,13.149081 C12.8778753,13.4202866 12.6167143,13.5910458 12.2651513,13.7316709 C11.2506412,14.1334571 8.83992404,14.0430552 7.7149227,14.0430552 C6.58992136,14.0430552 4.1792042,14.1334571 3.16469406,13.7316709 C2.81313114,13.5910458 2.55197012,13.4202866 2.28076444,13.149081 C2.00955876,12.8778753 1.83879963,12.6167143 1.69817446,12.2651513 C1.29638826,11.2506412 1.38679016,8.83992404 1.38679016,7.7149227 C1.38679016,6.58992136 1.29638826,4.1792042 1.69817446,3.16469406 C1.83879963,2.81313114 2.00955876,2.55197012 2.28076444,2.28076444 C2.55197012,2.00955876 2.81313114,1.83879963 3.16469406,1.69817446 C4.1792042,1.29638826 6.58992136,1.38679016 7.7149227,1.38679016 L7.7149227,1.38679016 Z M15.4292176,7.7149227 C15.4292176,6.65018929 15.4392623,5.59550053 15.3789943,4.53076712 C15.3187264,3.29527458 15.0374761,2.2004072 14.1334571,1.29638826 C13.2294382,0.392369329 12.1345708,0.111118994 10.8990783,0.0508510651 C9.83434487,-0.0094168639 8.77965611,0.000627790927 7.7149227,0.000627790927 C6.65018929,0.000627790927 5.59550053,-0.0094168639 4.53076712,0.0508510651 C3.29527458,0.111118994 2.2004072,0.392369329 1.29638826,1.29638826 C0.392369329,2.2004072 0.111118994,3.29527458 0.0508510651,4.53076712 C-0.0094168639,5.59550053 0.000627790927,6.65018929 0.000627790927,7.7149227 C0.000627790927,8.77965611 -0.0094168639,9.83434487 0.0508510651,10.8990783 C0.111118994,12.1345708 0.392369329,13.2294382 1.29638826,14.1334571 C2.2004072,15.0374761 3.29527458,15.3187264 4.53076712,15.3789943 C5.59550053,15.4392623 6.65018929,15.4292176 7.7149227,15.4292176 C8.77965611,15.4292176 9.83434487,15.4392623 10.8990783,15.3789943 C12.1345708,15.3187264 13.2294382,15.0374761 14.1334571,14.1334571 C15.0374761,13.2294382 15.3187264,12.1345708 15.3789943,10.8990783 C15.4392623,9.83434487 15.4292176,8.77965611 15.4292176,7.7149227 L15.4292176,7.7149227 Z" id=""></path>
        </g>
    </g>
</svg>