<?xml version="1.0" encoding="UTF-8"?>
<svg width="22px" height="24px" viewBox="0 0 22 24" version="1.1" xmlns="http://www.w3.org/2000/svg" xmlns:xlink="http://www.w3.org/1999/xlink">
    <!-- Generator: Sketch 42 (36781) - http://www.bohemiancoding.com/sketch -->
    <title>Combined Shape Copy 4</title>
    <desc>Created with Sketch.</desc>
    <defs></defs>
    <g id="icon" stroke="none" stroke-width="1" fill="none" fill-rule="evenodd">
        <g id="Artboard-43" fill="#4C5669">
            <path d="M9.85743607,11.2836977 C8.28749546,8.80226506 10.4507758,5.25109732 11.4574832,4.24438988 C11.9856654,3.70377988 12.6223332,3.22656709 13.3179942,2.80645933 L13.3179942,2.80645933 L14.4050767,3.89354187 L14.4050767,2.21562377 C17.8378073,0.531242457 22,-1.0658141e-14 22,-1.0658141e-14 C22,-1.0658141e-14 21.0713728,7.14873615 17.7556101,10.5425168 C16.7528049,11.545322 13.4547516,13.9252761 11.0135062,12.4289525 L9.97914642,13.4852076 L12.1987136,13.4852076 L12.1987136,16.2965897 C14.0794503,16.564886 15.5256354,18.1865544 15.5256354,20.1390514 C15.5256354,22.2826943 13.7898399,24.0204603 11.6479113,24.0204603 L3.87772415,24.0204603 C1.73611624,24.0204603 0,22.2783324 0,20.1390514 C0,18.1825491 1.44595379,16.5641507 3.32692188,16.2964887 L3.32692188,13.4852076 L7.65592614,13.4852076 L9.85743607,11.2836977 Z M9.98076564,18.4755905 L9.98076564,15.7031556 L5.5448698,15.7031556 L5.5448698,18.4755905 L3.87819399,18.4755905 C2.96279691,18.4755905 2.21794792,19.2203473 2.21794792,20.1390514 C2.21794792,21.0641605 2.9612654,21.8025123 3.87819399,21.8025123 L11.6474414,21.8025123 C12.5628385,21.8025123 13.3076875,21.0577555 13.3076875,20.1390514 C13.3076875,19.2139423 12.56437,18.4755905 11.6474414,18.4755905 L9.98076564,18.4755905 Z" id="Combined-Shape-Copy-4"></path>
        </g>
    </g>
</svg>