<?xml version="1.0" encoding="UTF-8"?>
<svg width="17px" height="18px" viewBox="0 0 17 18" version="1.1" xmlns="http://www.w3.org/2000/svg" xmlns:xlink="http://www.w3.org/1999/xlink">
    <!-- Generator: Sketch 42 (36781) - http://www.bohemiancoding.com/sketch -->
    <title>Combined Shape</title>
    <desc>Created with Sketch.</desc>
    <defs></defs>
    <g id="icon" stroke="none" stroke-width="1" fill="none" fill-rule="evenodd">
        <g id="Artboard-47" fill="#4C5669">
            <path d="M0,4.09003215 C0,4.09003215 0.366559486,5.20900322 1.48553055,5.10289389 C3.27009646,4.93890675 6.02893891,0.675241158 6.39549839,0 C6.8488746,0.270096463 7.36977492,0.578778135 7.99678457,0.926045016 C4.2926045,10.2926045 4.09967846,16.4083601 5.19935691,18 C4.66881029,17.1511254 3.73311897,16.0803859 3.07717042,15.3954984 C3.07717042,10.9292605 4.6977492,4.7266881 4.96784566,3.48231511 C3.42008899,4.83121654 2.32433056,5.43373675 1.59163987,5.48874598 C0.191797679,5.59384386 0,4.09003215 0,4.09003215 Z M6.85492551,6.94533762 C7.15396088,7.14790997 7.83884834,7.54340836 7.83884834,7.54340836 C7.83884834,7.54340836 6.85492551,9.12540193 6.7970477,10.9389068 C7.11537567,10.6109325 8.48515059,7.63022508 8.97711201,6.8488746 C9.32437889,7.07073955 9.60412166,7.21543408 10.0092663,7.46623794 C9.47871973,8.20900322 7.95460397,14.1800643 10.4915815,12.3086817 C10.1076682,12.6656536 7.38547214,15.1446945 8.35974866,9 C8.00283548,9.52090032 6.44013452,12.8874598 6.44013452,12.8874598 L5.63949143,12.1350482 C5.63949143,12.1350482 5.47550429,9 6.85492551,6.94533762 Z M14.1414791,3.102983 C12.8006431,2.46632705 12.192926,4.14478365 11.7009646,6.47918879 C11.2090032,8.81359394 11.1414791,9.40201837 11.1993569,9.75893156 C11.5466238,9.70105374 13.1961415,4.54992834 16.8713826,6.102983 C14.3247588,5.38915664 12.5594855,8.32163252 12.5594855,8.32163252 C12.5594855,8.32163252 13.4710611,15.836102 16.2636656,12.102983 C13.244373,17.0225972 11.9131833,9.85539458 11.7588424,9.75893156 C11.2379421,10.2412467 10.8440566,12.5274203 11.1993569,13.1351373 C10.8440566,12.6045907 10.4565916,11.9486422 10.0707395,11.4084492 C10.1864952,9.932565 10.3968847,8.13863825 10.8810289,6.102983 C11.4505639,3.70828989 12.2315113,1.52098943 14.1414791,3.102983 Z" id="Combined-Shape"></path>
        </g>
    </g>
</svg>