<?xml version="1.0" encoding="UTF-8"?>
<svg width="25px" height="22px" viewBox="0 0 25 22" version="1.1" xmlns="http://www.w3.org/2000/svg" xmlns:xlink="http://www.w3.org/1999/xlink">
    <!-- Generator: Sketch 40.3 (33839) - http://www.bohemiancoding.com/sketch -->
    <title>Combined Shape</title>
    <desc>Created with Sketch.</desc>
    <defs></defs>
    <g id="icon" stroke="none" stroke-width="1" fill="none" fill-rule="evenodd">
        <g id="Artboard-22" fill="#B2B9C7">
            <path d="M2.41692912,19.2599039 L4.83385824,19.2599039 L4.83385824,9.59218744 L2.41692912,9.59218744 L2.41692912,19.2599039 Z M7.25078736,8.55895024 L7.25078736,8.38372288 C7.25078736,7.71665044 6.70939523,7.17525832 6.0423228,7.17525832 L1.20846456,7.17525832 C0.541392123,7.17525832 0,7.71665044 0,8.38372288 L0,20.4683685 C0,21.1354409 0.541392123,21.676833 1.20846456,21.676833 L6.0423228,21.676833 C6.70939523,21.676833 7.25078736,21.1354409 7.25078736,20.4683685 L7.25078736,20.2931411 L8.28728741,20.2931411 L11.3942498,21.5843855 C11.5410782,21.645413 11.6987829,21.676833 11.8583002,21.676833 L21.6015457,21.676833 C22.1894637,21.676833 22.6927892,21.252662 22.7918833,20.672599 L24.9822253,7.90819208 C25.0432528,7.55713312 24.9453671,7.19761492 24.7157589,6.92510616 C24.4861506,6.6525974 24.1477805,6.49549701 23.7918877,6.49549701 L16.9187455,6.49549701 L16.9187455,1.20846456 C16.9187455,0.541392123 16.3773534,0 15.710281,0 L12.3114744,0 C11.8450071,0 11.420836,0.2676749 11.2202309,0.688824799 L7.46976113,8.55895024 L7.25078736,8.55895024 Z M12.0993889,19.2599039 L20.5822058,19.2599039 L22.3586487,8.91242613 L15.710281,8.91242613 C15.0426043,8.91242613 14.5018164,8.371034 14.5018164,7.70396157 L14.5018164,2.41692912 L13.0740155,2.41692912 L9.32354577,10.2870546 C9.12294065,10.7082045 8.69876959,10.9758794 8.2329065,10.9758794 L7.25102905,10.9758794 L7.25102905,17.876212 L8.52898032,17.876212 C8.68789341,17.876212 8.84559804,17.9076321 8.99242648,17.9686595 L12.0993889,19.2599039 Z" id="Combined-Shape"></path>
        </g>
    </g>
</svg>