<?xml version="1.0" encoding="UTF-8"?>
<svg width="17px" height="16px" viewBox="0 0 17 16" version="1.1" xmlns="http://www.w3.org/2000/svg" xmlns:xlink="http://www.w3.org/1999/xlink">
    <!-- Generator: Sketch 40.3 (33839) - http://www.bohemiancoding.com/sketch -->
    <title></title>
    <desc>Created with Sketch.</desc>
    <defs></defs>
    <g id="icon" stroke="none" stroke-width="1" fill="none" fill-rule="evenodd">
        <g id="Artboard-13" fill="#4C5669">
            <path d="M14.464303,12.0535858 C14.464303,12.3047022 14.3638564,12.5457739 14.1830526,12.7265777 L12.7064884,14.1930973 C12.5256846,14.3638564 12.2745682,14.4542583 12.0234518,14.4542583 C11.7723355,14.4542583 11.5212191,14.3638564 11.3404153,14.1830526 L9.27121641,12.1038091 C9.09041262,11.9230053 8.98996607,11.6718889 8.98996607,11.4207725 C8.98996607,11.1194329 9.11050193,10.8884058 9.32143968,10.6875127 C9.65291329,11.0189863 9.93416363,11.4107279 10.446441,11.4107279 C10.9788077,11.4107279 11.4107279,10.9788077 11.4107279,10.446441 C11.4107279,9.93416363 11.0189863,9.65291329 10.6875127,9.32143968 C10.8884058,9.11050193 11.1194329,9.00001073 11.4107279,9.00001073 C11.6618443,9.00001073 11.9129606,9.10045728 12.0937644,9.28126106 L14.1830526,11.3705493 C14.3638564,11.5513531 14.464303,11.7924248 14.464303,12.0535858 L14.464303,12.0535858 Z M7.40291061,4.97210414 C7.40291061,5.27344379 7.28237475,5.50447085 7.071437,5.70536394 C6.73996339,5.37389033 6.45871306,4.9821488 5.94643566,4.9821488 C5.41406895,4.9821488 4.9821488,5.41406895 4.9821488,5.94643566 C4.9821488,6.45871306 5.37389033,6.73996339 5.70536394,7.071437 C5.50447085,7.28237475 5.27344379,7.3828213 4.9821488,7.3828213 C4.73103243,7.3828213 4.47991605,7.29241941 4.29911227,7.11161562 L2.20982406,5.02232742 C2.02902028,4.84152363 1.92857373,4.60045191 1.92857373,4.33929089 C1.92857373,4.08817452 2.02902028,3.8471028 2.20982406,3.66629901 L3.68638832,2.19977941 C3.86719211,2.02902028 4.11830848,1.92857373 4.36942485,1.92857373 C4.62054122,1.92857373 4.87165759,2.02902028 5.05246138,2.20982406 L7.12166028,4.28906761 C7.30246406,4.4698714 7.40291061,4.72098777 7.40291061,4.97210414 L7.40291061,4.97210414 Z M16.3928767,12.0535858 C16.3928767,11.2801474 16.1015817,10.5569322 15.5491257,10.0044762 L13.4598375,7.91518801 C12.9174261,7.37277665 12.1741217,7.071437 11.4107279,7.071437 C10.6172002,7.071437 9.8738957,7.39286596 9.32143968,7.95536663 L8.43751006,7.071437 C9.00001073,6.51898099 9.32143968,5.76563187 9.32143968,4.97210414 C9.32143968,4.20871037 9.03014469,3.47545057 8.48773333,2.93303921 L6.41853444,0.853795661 C5.87612308,0.301339645 5.14286327,0 4.36942485,0 C3.60603108,0 2.87277128,0.29129499 2.33035992,0.833706351 L0.853795661,2.30022596 C0.3113843,2.83259266 0,3.57589712 0,4.33929089 C0,5.11272931 0.29129499,5.83594446 0.843751006,6.38840047 L2.93303921,8.47768868 C3.47545057,9.02010004 4.21875503,9.32143968 4.9821488,9.32143968 C5.77567653,9.32143968 6.51898099,9.00001073 7.071437,8.43751006 L7.95536663,9.32143968 C7.39286596,9.8738957 7.071437,10.6272448 7.071437,11.4207725 C7.071437,12.1841663 7.36273199,12.9174261 7.90514335,13.4598375 L9.97434225,15.539081 C10.5167536,16.091537 11.2500134,16.3928767 12.0234518,16.3928767 C12.7868456,16.3928767 13.5201054,16.1015817 14.0625168,15.5591703 L15.539081,14.0926507 C16.0814924,13.560284 16.3928767,12.8169796 16.3928767,12.0535858 L16.3928767,12.0535858 Z" id=""></path>
        </g>
    </g>
</svg>