<?xml version="1.0" encoding="UTF-8"?>
<svg width="14px" height="21px" viewBox="0 0 14 21" version="1.1" xmlns="http://www.w3.org/2000/svg" xmlns:xlink="http://www.w3.org/1999/xlink">
    <!-- Generator: Sketch 41 (35326) - http://www.bohemiancoding.com/sketch -->
    <title></title>
    <desc>Created with Sketch.</desc>
    <defs></defs>
    <g id="icon" stroke="none" stroke-width="1" fill="none" fill-rule="evenodd">
        <g id="a" fill="#F01414">
            <path d="M10.2857265,6.99998569 C10.2857265,8.8883808 8.74554614,10.4285612 6.85715103,10.4285612 C4.96875592,10.4285612 3.42857552,8.8883808 3.42857552,6.99998569 C3.42857552,5.11159059 4.96875592,3.57141018 6.85715103,3.57141018 C8.74554614,3.57141018 10.2857265,5.11159059 10.2857265,6.99998569 Z M13.7143021,6.99998569 C13.7143021,3.20980261 10.6473341,0.142834663 6.85715103,0.142834663 C3.06696794,0.142834663 0,3.20980261 0,6.99998569 C0,7.81695095 0.0937501118,8.66070196 0.441964813,9.39730998 L5.3303635,19.7633938 C5.59822096,20.3526802 6.21429312,20.7142878 6.85715103,20.7142878 C7.50000894,20.7142878 8.1160811,20.3526802 8.39733144,19.7633938 L13.2723373,9.39730998 C13.620552,8.66070196 13.7143021,7.81695095 13.7143021,6.99998569 Z" id=""></path>
        </g>
    </g>
</svg>