<?xml version="1.0" encoding="UTF-8"?>
<svg width="27px" height="22px" viewBox="0 0 27 22" version="1.1" xmlns="http://www.w3.org/2000/svg" xmlns:xlink="http://www.w3.org/1999/xlink">
    <!-- Generator: Sketch 40.3 (33839) - http://www.bohemiancoding.com/sketch -->
    <title>Combined Shape</title>
    <desc>Created with Sketch.</desc>
    <defs></defs>
    <g id="icon" stroke="none" stroke-width="1" fill="none" fill-rule="evenodd">
        <g id="Artboard-19" fill="#E1E6EE">
            <path d="M11.1450954,2.94984262 C9.51825718,2.94984262 8.19525276,4.27284703 8.19525276,5.89968524 C8.19525276,7.52652344 9.51825718,8.84952786 11.1450954,8.84952786 C12.7719336,8.84952786 14.094938,7.52652344 14.094938,5.89968524 C14.094938,4.27284703 12.7719336,2.94984262 11.1450954,2.94984262 M23.7864247,11.7994442 L23.7864247,14.9646254 L20.8365821,14.9646254 L20.8365821,11.7994442 L17.6714009,11.7994442 L17.6714009,8.8496016 L20.8365821,8.8496016 L20.8365821,5.68515793 L23.7864247,5.68515793 L23.7864247,8.8496016 L26.9516058,8.8496016 L26.9516058,11.7994442 L23.7864247,11.7994442 Z M11.1450954,11.7993705 C7.89215644,11.7993705 5.24541015,9.15262419 5.24541015,5.89968524 C5.24541015,2.64674629 7.89215644,-4.26325641e-14 11.1450954,-4.26325641e-14 C14.3980343,-4.26325641e-14 17.0447806,2.64674629 17.0447806,5.89968524 C17.0447806,9.15262419 14.3980343,11.7993705 11.1450954,11.7993705 Z M22.2934356,22 L19.343593,22 L19.343593,19.8997121 C17.3930095,17.3495731 14.3605713,15.8399912 11.1459803,15.8399912 C7.9321268,15.8399912 4.90190097,17.3495731 2.94984262,19.8997121 L2.94984262,22 L0,22 L0,18.9542875 L0.265485836,18.5737578 C2.75294062,15.0147727 6.82003614,12.8901485 11.1459803,12.8901485 C15.4741369,12.8901485 19.5419699,15.0147727 22.0279498,18.5737578 L22.2934356,18.955025 L22.2934356,22 Z" id="Combined-Shape"></path>
        </g>
    </g>
</svg>