<?xml version="1.0" encoding="UTF-8"?>
<svg width="11px" height="14px" viewBox="0 0 11 14" version="1.1" xmlns="http://www.w3.org/2000/svg" xmlns:xlink="http://www.w3.org/1999/xlink">
    <!-- Generator: Sketch 41 (35326) - http://www.bohemiancoding.com/sketch -->
    <title>Combined Shape</title>
    <desc>Created with Sketch.</desc>
    <defs></defs>
    <g id="icon" stroke="none" stroke-width="1" fill="none" fill-rule="evenodd">
        <g id="Artboard-40" fill="#B2B9C7">
            <path d="M0,5.06517171 C0,6.1766248 0.441187486,7.79714038 1.65445307,8.16196849 C1.69687495,8.17045287 1.75626557,8.18742162 1.79868744,8.18742162 C2.07867181,8.18742162 2.23987493,7.40685914 2.23987493,7.1862654 C2.23987493,6.92324978 1.56960933,6.36328105 1.56960933,5.26879671 C1.56960933,2.99498428 3.30042177,1.38295308 5.5402967,1.38295308 C7.46624976,1.38295308 8.89162472,2.47743742 8.89162472,4.48823423 C8.89162472,5.98996856 8.28923411,8.80678097 6.33782792,8.80678097 C5.63362482,8.80678097 5.03123422,8.29771849 5.03123422,7.56806226 C5.03123422,6.49903104 5.77785919,5.46393733 5.77785919,4.36096861 C5.77785919,3.69070301 5.39606233,3.14770303 4.68337485,3.14770303 C3.71615613,3.14770303 3.1222499,4.23370299 3.1222499,5.09062484 C3.1222499,5.56574982 3.18164052,6.09178106 3.39374989,6.52448417 C3.00346866,8.20439037 2.20593743,10.7072809 2.20593743,12.4380934 C2.20593743,12.972609 2.2822968,13.4986402 2.33320305,14.0331558 L2.40956242,14.1179996 L2.52834367,14.0755777 C3.95371863,12.1241715 3.90281238,11.7423746 4.54762486,9.18857783 C4.89548422,9.85035906 5.79482794,10.2067028 6.50751542,10.2067028 C9.51098407,10.2067028 10.8599997,7.27959352 10.8599997,4.64095298 C10.8599997,1.83262494 8.43346848,0 5.76937482,0 C2.86771866,0 0,1.93443744 0,5.06517171 L0,5.06517171 Z" id="Combined-Shape"></path>
        </g>
    </g>
</svg>