<?xml version="1.0" encoding="UTF-8"?>
<svg width="16px" height="16px" viewBox="0 0 16 16" version="1.1" xmlns="http://www.w3.org/2000/svg" xmlns:xlink="http://www.w3.org/1999/xlink">
    <!-- Generator: Sketch 40.3 (33839) - http://www.bohemiancoding.com/sketch -->
    <title>RSS</title>
    <desc>Created with Sketch.</desc>
    <defs></defs>
    <g id="icon" stroke="none" stroke-width="1" fill="none" fill-rule="evenodd">
        <g id="Artboard-8" fill="#FFFFFF">
            <path d="M4.01133144,14.0056657 C4.01133144,12.8951841 3.10481586,11.9886686 1.99433428,11.9886686 C0.906515581,11.9886686 0,12.917847 0,14.0056657 C0,15.0934844 0.906515581,16 1.99433428,16 C3.08215297,16 4.01133144,15.0934844 4.01133144,14.0056657 L4.01133144,14.0056657 Z M10.5609065,16 C10.5609065,10.1756374 5.82436261,5.43909348 0,5.43909348 L0,8.49858357 C4.12464589,8.49858357 7.47875354,11.8753541 7.47875354,16 L10.5609065,16 Z M16,16 C16,7.18413598 8.81586402,0.0226628895 0,1.42108547e-14 L0,3.05949008 C7.1388102,3.08215297 12.8951841,8.8611898 12.917847,16 L16,16 Z" id="RSS"></path>
        </g>
    </g>
</svg>