<?xml version="1.0" encoding="UTF-8"?>
<svg width="19px" height="20px" viewBox="0 0 19 20" version="1.1" xmlns="http://www.w3.org/2000/svg" xmlns:xlink="http://www.w3.org/1999/xlink">
    <!-- Generator: Sketch 40.3 (33839) - http://www.bohemiancoding.com/sketch -->
    <title>search</title>
    <desc>Created with Sketch.</desc>
    <defs></defs>
    <g id="icon" stroke="none" stroke-width="1" fill="none" fill-rule="evenodd">
        <g id="search" fill="#000000">
            <path d="M11.4103414,15.2387677 C10.3758342,15.7270005 9.21979833,16 8,16 C3.581722,16 0,12.418278 0,8 C0,3.581722 3.581722,0 8,0 C12.418278,0 16,3.581722 16,8 C16,9.74247947 15.4429154,11.3548449 14.4971348,12.6687077 L17.5027152,15.6742881 C18.2822642,16.4538371 18.2864939,17.7135061 17.5,18.5 C16.7189514,19.2810486 15.4574223,19.2858494 14.6742881,18.5027152 L11.4114983,15.2399254 C11.4111125,15.2395396 11.4107269,15.2391537 11.4103414,15.2387677 Z M8,13 C10.7614237,13 13,10.7614237 13,8 C13,5.23857625 10.7614237,3 8,3 C5.23857625,3 3,5.23857625 3,8 C3,10.7614237 5.23857625,13 8,13 Z"></path>
        </g>
    </g>
</svg>