<?xml version="1.0" encoding="UTF-8"?>
<svg width="25px" height="25px" viewBox="0 0 25 25" version="1.1" xmlns="http://www.w3.org/2000/svg" xmlns:xlink="http://www.w3.org/1999/xlink">
    <!-- Generator: Sketch 40.3 (33839) - http://www.bohemiancoding.com/sketch -->
    <title>Fill 1 Copy 3</title>
    <desc>Created with Sketch.</desc>
    <defs></defs>
    <g id="icon" stroke="none" stroke-width="1" fill="none" fill-rule="evenodd">
        <g id="Artboard-21" fill="#B2B9C7">
            <path d="M19.9634853,2.51825737 C21.3523042,2.51825737 22.4817426,3.64769579 22.4817426,5.03651473 C22.4817426,6.42533367 21.3523042,7.5547721 19.9634853,7.5547721 C18.5746663,7.5547721 17.4452279,6.42533367 17.4452279,5.03651473 C17.4452279,3.64769579 18.5746663,2.51825737 19.9634853,2.51825737 M5.03651473,15.5452027 C3.64769579,15.5452027 2.51825737,14.4157643 2.51825737,13.0269454 C2.51825737,11.6381264 3.64769579,10.508688 5.03651473,10.508688 C6.42533367,10.508688 7.5547721,11.6381264 7.5547721,13.0269454 C7.5547721,14.4157643 6.42533367,15.5452027 5.03651473,15.5452027 M18.3096197,17.2242508 C19.6984387,17.2242508 20.8278771,18.3536892 20.8278771,19.7425082 C20.8278771,21.1313271 19.6984387,22.2607656 18.3096197,22.2607656 C16.9208008,22.2607656 15.7913624,21.1313271 15.7913624,19.7425082 C15.7913624,18.3536892 16.9208008,17.2242508 18.3096197,17.2242508 M19.9634853,10.0730295 C22.7404936,10.0730295 25,7.81352304 25,5.03651473 C25,2.25950642 22.7404936,0 19.9634853,0 C17.186477,0 14.9269705,2.25950642 14.9269705,5.03651473 C14.9269705,5.44636112 14.9817426,5.84298665 15.0742886,6.22513221 L8.73457567,9.61911357 C7.81352304,8.62062453 6.49836313,7.99043062 5.03651473,7.99043062 C2.25950642,7.99043062 0,10.249937 0,13.0269454 C0,15.8045832 2.25950642,18.0634601 5.03651473,18.0634601 C6.54054394,18.0634601 7.88907076,17.397381 8.81264165,16.3491564 L13.3920927,18.6653236 C13.3159154,19.0128431 13.273105,19.3729539 13.273105,19.7425082 C13.273105,22.5201461 15.5326114,24.7790229 18.3096197,24.7790229 C21.0866281,24.7790229 23.3461345,22.5201461 23.3461345,19.7425082 C23.3461345,16.9654999 21.0866281,14.7059935 18.3096197,14.7059935 C16.8055905,14.7059935 15.4570637,15.3720725 14.5334928,16.4209267 L9.9540418,14.1041299 C10.0302191,13.75724 10.0730295,13.3971292 10.0730295,13.0269454 C10.0730295,12.617099 10.0182574,12.2204734 9.92571141,11.8389574 L16.2654243,8.44434651 C17.186477,9.44283556 18.5016369,10.0730295 19.9634853,10.0730295" id="Fill-1-Copy-3"></path>
        </g>
    </g>
</svg>