<?xml version="1.0" encoding="UTF-8"?>
<svg width="15px" height="16px" viewBox="0 0 15 16" version="1.1" xmlns="http://www.w3.org/2000/svg" xmlns:xlink="http://www.w3.org/1999/xlink">
    <!-- Generator: Sketch 40.3 (33839) - http://www.bohemiancoding.com/sketch -->
    <title>Page 1</title>
    <desc>Created with Sketch.</desc>
    <defs></defs>
    <g id="icon" stroke="none" stroke-width="1" fill="none" fill-rule="evenodd">
        <g id="Artboard-3" fill="#4C5669">
            <path d="M2.98824675,9.150339 L9.04793968,9.150339 L9.04793968,7.62661582 L2.98824675,7.62661582 L2.98824675,9.150339 Z M2.98824675,6.85702095 L12.0772528,6.85702095 L12.0772528,5.33329778 L2.98824675,5.33329778 L2.98824675,6.85702095 Z M2.98824675,4.49970334 L12.0772528,4.49970334 L12.0772528,2.97598016 L2.98824675,2.97598016 L2.98824675,4.49970334 Z M13.6340424,10.6665956 L6.89968734,10.6665956 C6.69915534,10.6665956 6.50608996,10.7471284 6.36422424,10.8895274 L3.86984087,13.398844 L3.86984087,11.4281905 C3.86984087,11.0079266 3.53064313,10.6665956 3.11251258,10.6665956 L1.51465657,10.6665956 L1.51465657,1.52372318 L13.6340424,1.52372318 L13.6340424,10.6665956 Z M14.3913707,-3.97903932e-13 L0.757328284,-3.97903932e-13 C0.339197739,-3.97903932e-13 0,0.340797728 0,0.761594923 L0,11.4281905 C0,11.8489877 0.339197739,12.1903187 0.757328284,12.1903187 L2.3551843,12.1903187 L2.3551843,15.2377651 C2.3551843,15.5460297 2.5397164,15.8238945 2.82291451,15.9417604 C2.91678055,15.9806935 3.01491323,15.9998933 3.11251258,15.9998933 C3.3098446,15.9998933 3.50290998,15.9225605 3.64797568,15.7764282 L7.21328524,12.1903187 L14.3913707,12.1903187 C14.8095013,12.1903187 15.148699,11.8489877 15.148699,11.4281905 L15.148699,0.761594923 C15.148699,0.340797728 14.8095013,-3.97903932e-13 14.3913707,-3.97903932e-13 L14.3913707,-3.97903932e-13 Z" id="Page-1"></path>
        </g>
    </g>
</svg>