<?xml version="1.0" encoding="UTF-8"?>
<svg width="17px" height="16px" viewBox="0 0 17 16" version="1.1" xmlns="http://www.w3.org/2000/svg" xmlns:xlink="http://www.w3.org/1999/xlink">
    <!-- Generator: Sketch 40.3 (33839) - http://www.bohemiancoding.com/sketch -->
    <title>Fill 1 Copy 5</title>
    <desc>Created with Sketch.</desc>
    <defs></defs>
    <g id="icon" stroke="none" stroke-width="1" fill="none" fill-rule="evenodd">
        <g id="Artboard-26" fill="#FFCB31">
            <path d="M8.3685303,11.8789717 C8.50200659,11.8789717 8.63631973,11.9107717 8.75808024,11.9747901 L11.9121376,13.6329925 L11.309193,10.1211852 C11.2631667,9.84962996 11.3531272,9.57263527 11.5502035,9.38016162 L14.1017346,6.89348571 L10.5752826,6.38092 C10.3028905,6.34158843 10.0677379,6.17003583 9.94555899,5.92316745 L8.3685303,2.72768639 L6.79150161,5.92316745 C6.66932268,6.17003583 6.43417009,6.34158843 6.16177803,6.38092 L2.63532598,6.89348571 L5.18685714,9.38016162 C5.38393342,9.57263527 5.47389393,9.84962996 5.42786763,10.1211852 L4.82492299,13.6329925 L7.97898036,11.9747901 C8.10074087,11.9107717 8.23505401,11.8789717 8.3685303,11.8789717 M13.0234637,16 C12.8904059,16 12.7565112,15.9677816 12.6339138,15.9037632 L8.3685303,13.6614451 L4.10314679,15.9037632 C3.82154947,16.0518842 3.47969952,16.0276158 3.22153378,15.8401632 C2.96420487,15.653129 2.83491279,15.3355475 2.88847067,15.0217317 L3.70355475,10.2718167 L0.252836897,6.90854886 C0.024797461,6.6859489 -0.0576314728,6.35372264 0.0411158794,6.05036743 C0.139444811,5.74784905 0.401376346,5.52650435 0.716447347,5.48089647 L5.4851913,4.78799132 L7.61788305,0.466957818 C7.75930935,0.181176286 8.04969351,0 8.3685303,0 C8.68736709,0 8.97775125,0.181176286 9.11917754,0.466957818 L11.2518693,4.78799132 L16.0206133,5.48089647 C16.3356843,5.52650435 16.5976158,5.74784905 16.6959447,6.05036743 C16.7946921,6.35372264 16.7122631,6.6859489 16.4842237,6.90854886 L13.0335058,10.2718167 L13.8485899,15.0217317 C13.9021478,15.3355475 13.7728557,15.653129 13.5155268,15.8401632 C13.3694979,15.9460237 13.19669,16 13.0234637,16" id="Fill-1-Copy-5"></path>
        </g>
    </g>
</svg>