<?xml version="1.0" encoding="UTF-8"?>
<svg width="19px" height="19px" viewBox="0 0 19 19" version="1.1" xmlns="http://www.w3.org/2000/svg" xmlns:xlink="http://www.w3.org/1999/xlink">
    <!-- Generator: Sketch 41 (35326) - http://www.bohemiancoding.com/sketch -->
    <title></title>
    <desc>Created with Sketch.</desc>
    <defs></defs>
    <g id="icon" stroke="none" stroke-width="1" fill="none" fill-rule="evenodd">
        <g id="Artboard-29" fill="#F01414">
            <path d="M18.8571653,15.0357096 C18.8571653,14.9419594 18.8571653,14.8482093 18.8169867,14.7544592 C18.7232366,14.4732089 18.0669858,14.1785657 17.7991284,14.0446369 C17.0357346,13.616065 16.258948,13.2008859 15.5089471,12.7589211 C15.1607324,12.5446352 14.7321604,12.142849 14.3169814,12.142849 C13.5000161,12.142849 12.3080504,14.566959 11.5848352,14.566959 C11.2232277,14.566959 10.7544771,14.2321372 10.4330482,14.0446369 C7.99554525,12.6919568 6.30804323,11.0044548 4.95536305,8.56695185 C4.76786283,8.24552289 4.433041,7.77677234 4.433041,7.41516476 C4.433041,6.69194961 6.85715103,5.49998391 6.85715103,4.68301865 C6.85715103,4.26783958 6.45536484,3.83926764 6.24107887,3.49105294 C5.79911406,2.74105205 5.38393499,1.96426541 4.95536305,1.20087164 C4.82143432,0.933014177 4.52679111,0.276763394 4.24554078,0.183013283 C4.15179066,0.142834663 4.05804055,0.142834663 3.96429044,0.142834663 C3.48214701,0.142834663 2.54464589,0.357120633 2.10268108,0.55801373 C1.4464303,0.839264065 1.01785836,1.58926496 0.683036529,2.19194425 C0.254464589,2.98212376 0,3.78569615 0,4.68301865 C0,5.92855585 0.508929178,7.05355719 0.924108244,8.1919514 C1.21875145,9.00891666 1.58035903,9.79909617 2.03571671,10.5357042 C3.44196839,12.8124926 6.18750738,15.5580316 8.4642958,16.9642833 C9.20090383,17.419641 9.99108334,17.7812485 10.8080486,18.0758918 C11.9464428,18.4910708 13.0714442,19 14.3169814,19 C15.2143039,19 16.0178762,18.7455354 16.8080558,18.3169635 C17.410735,17.9821416 18.1607359,17.5535697 18.4419863,16.8973189 C18.6428794,16.4553541 18.8571653,15.517853 18.8571653,15.0357096 Z" id=""></path>
        </g>
    </g>
</svg>