<?xml version="1.0" encoding="UTF-8"?>
<svg width="12px" height="12px" viewBox="0 0 12 12" version="1.1" xmlns="http://www.w3.org/2000/svg" xmlns:xlink="http://www.w3.org/1999/xlink">
    <!-- Generator: Sketch 40.3 (33839) - http://www.bohemiancoding.com/sketch -->
    <title>Combined Shape</title>
    <desc>Created with Sketch.</desc>
    <defs></defs>
    <g id="icon" stroke="none" stroke-width="1" fill="none" fill-rule="evenodd">
        <g id="Artboard-11" fill="#B2B9C7">
            <path d="M11.863,7.26466667 C11.869,7.23666667 11.876,7.20866667 11.882,7.18033333 C11.916,7.009 11.942,6.83633333 11.961,6.66233333 C11.9656667,6.62366667 11.9686667,6.585 11.9723333,6.54633333 C11.9886667,6.365 12,6.18266667 12,6 C12,5.81733333 11.9886667,5.635 11.9723333,5.45366667 C11.9686667,5.415 11.9656667,5.37633333 11.961,5.33766667 C11.942,5.16366667 11.916,4.991 11.882,4.81966667 C11.876,4.79133333 11.869,4.76333333 11.863,4.73533333 C11.8463333,4.65666667 11.8303333,4.578 11.8103333,4.50033333 L11.803,4.50233333 C11.259,2.39733333 9.60233333,0.741 7.49766667,0.197 L7.49966667,0.189 C7.41833333,0.168333333 7.336,0.151666667 7.254,0.134 C7.231,0.129333333 7.20866667,0.123333333 7.18533333,0.118666667 C7.01166667,0.084 6.83566667,0.0576666667 6.659,0.038 C6.62266667,0.0343333333 6.586,0.031 6.54933333,0.0276666667 C6.367,0.0113333333 6.18366667,0 6,0 C2.69166667,0 0,2.69166667 0,6 C0,9.30833333 2.69166667,12 6,12 C6.18333333,12 6.366,11.9886667 6.548,11.9723333 C6.58533333,11.9686667 6.623,11.9656667 6.66033333,11.9616667 C6.836,11.9423333 7.01033333,11.9163333 7.18266667,11.8816667 C7.209,11.8763333 7.234,11.87 7.26,11.8643333 C7.34,11.847 7.42066667,11.831 7.5,11.8106667 L7.498,11.803 C9.60266667,11.259 11.259,9.60266667 11.803,7.49766667 L11.8103333,7.49966667 C11.8303333,7.422 11.8463333,7.34333333 11.863,7.26466667 Z M7.07,10.538 C6.95133333,10.566 6.83133333,10.5883333 6.71033333,10.6066667 C6.65333333,10.6153333 6.597,10.6263333 6.53933333,10.633 C6.361,10.6533333 6.181,10.6666667 6,10.6666667 C3.42666667,10.6666667 1.33333333,8.57333333 1.33333333,6 C1.33333333,3.42666667 3.42666667,1.33333333 6,1.33333333 C6.18066667,1.33333333 6.36066667,1.34666667 6.539,1.367 C6.59766667,1.374 6.65466667,1.38466667 6.71266667,1.39366667 C6.831,1.41166667 6.94866667,1.43366667 7.065,1.46066667 C8.78166667,1.86366667 10.1333333,3.21433333 10.538,4.93033333 C10.566,5.04966667 10.5883333,5.17066667 10.607,5.29233333 C10.6156667,5.34833333 10.626,5.40333333 10.6326667,5.46 C10.6533333,5.639 10.6666667,5.819 10.6666667,6 C10.6666667,6.181 10.6533333,6.361 10.6326667,6.54 C10.626,6.59666667 10.6156667,6.65166667 10.607,6.70766667 C10.5883333,6.82933333 10.566,6.95033333 10.538,7.06966667 C10.1336667,8.784 8.78433333,10.1336667 7.07,10.538 Z M6.15286667,5.70636667 L4.12453333,3.30236667 L3.10553333,4.16236667 L5.96653333,7.5527 L8.30653333,5.70403333 L7.47953333,4.6577 L6.15286667,5.70636667 Z" id="Combined-Shape"></path>
        </g>
    </g>
</svg>