<?xml version="1.0" encoding="UTF-8"?>
<svg width="18px" height="13px" viewBox="0 0 18 13" version="1.1" xmlns="http://www.w3.org/2000/svg" xmlns:xlink="http://www.w3.org/1999/xlink">
    <!-- Generator: Sketch 40.3 (33839) - http://www.bohemiancoding.com/sketch -->
    <title>Twitter</title>
    <desc>Created with Sketch.</desc>
    <defs></defs>
    <g id="icon" stroke="none" stroke-width="1" fill="none" fill-rule="evenodd">
        <g id="Artboard-6" fill="#FFFFFF">
            <path d="M15.5261224,6.23829214 C15.1967852,7.46739527 14.5748044,8.61808479 13.7838657,9.6189507 C11.4619248,12.5097186 7.93992056,13.6361199 4.36966859,12.6794737 C2.69184527,12.2299023 1.16422087,11.2978192 -1.24344979e-14,10.0239934 C0.228887309,10.1062339 0.477284191,10.1937019 0.711399074,10.2564328 C2.11608837,10.6328182 3.58771074,10.525291 4.91026014,9.95961398 C3.60834628,9.58985692 2.67301272,8.39827164 2.59787644,7.03987986 C2.78251703,7.13117475 2.97238519,7.20296007 3.16748092,7.25523582 C3.44061495,7.32842186 3.72420413,7.36258876 4.01824846,7.3577365 C2.65295363,6.67825239 1.91971943,5.12261351 2.35080666,3.66985064 L2.36126181,3.63083149 C2.72774153,3.97995301 3.15937828,4.24198182 3.66139962,4.39740833 C2.94029604,3.57688027 2.68919828,2.48499422 2.96625973,1.45098682 C3.11263181,0.904718762 3.39557091,0.395043723 3.79416673,8.70414851e-14 C4.85691232,2.35488132 6.8648971,4.1475371 9.30601993,4.94800607 C9.3102221,4.69820847 9.35344342,4.45886601 9.41617432,4.22475113 C9.87620087,2.50790865 11.6325384,1.49388671 13.3493809,1.95391327 C14.1882925,2.17869897 14.9135983,2.74942943 15.3316031,3.53056301 C16.0705408,3.58218868 16.8018247,3.50630176 17.5007179,3.31718424 C17.0784103,3.956798 16.4233886,4.45041499 15.6802487,4.64858693 C16.3202378,4.75734059 16.9525732,4.73858167 17.5863093,4.63655687 C17.0093259,5.15108416 16.3361953,5.55620771 15.6163919,5.82336352 C15.5993084,5.96515811 15.5627154,6.10172512 15.5261224,6.23829214 Z" id="Twitter"></path>
        </g>
    </g>
</svg>