<?xml version="1.0" encoding="UTF-8"?>
<svg width="22px" height="22px" viewBox="0 0 22 22" version="1.1" xmlns="http://www.w3.org/2000/svg" xmlns:xlink="http://www.w3.org/1999/xlink">
    <!-- Generator: Sketch 42 (36781) - http://www.bohemiancoding.com/sketch -->
    <title>Combined Shape</title>
    <desc>Created with Sketch.</desc>
    <defs></defs>
    <g id="icon" stroke="none" stroke-width="1" fill="none" fill-rule="evenodd">
        <g id="Artboard-44" fill="#4C5669">
            <path d="M19.5885982,12.9129441 L21,17.5 L19,22 L3,22 L1,17.5 L2.41091566,12.9145241 C1.59427775,12.6668801 1,11.908093 1,10.9940809 L1,8.00591905 C1,6.89808055 1.89821238,6 2.99079514,6 L19.0092049,6 C20.1086907,6 21,6.88655484 21,8.00591905 L21,10.9940809 C21,11.8979238 20.4021228,12.6621455 19.5885982,12.9129441 Z M18.4,19 L3.6,19 L4,20 L18,20 L18.4,19 Z M3.16666667,17 L18.8333333,17 L17.5,13 L4.5,13 L3.16666667,17 Z M7,16 C6.44771525,16 6,15.5522847 6,15 C6,14.4477153 6.44771525,14 7,14 C7.55228475,14 8,14.4477153 8,15 C8,15.5522847 7.55228475,16 7,16 Z M11,16 C10.4477153,16 10,15.5522847 10,15 C10,14.4477153 10.4477153,14 11,14 C11.5522847,14 12,14.4477153 12,15 C12,15.5522847 11.5522847,16 11,16 Z M15,16 C14.4477153,16 14,15.5522847 14,15 C14,14.4477153 14.4477153,14 15,14 C15.5522847,14 16,14.4477153 16,15 C16,15.5522847 15.5522847,16 15,16 Z M3,8 L3,11 L19,11 L19,8 L3,8 Z M0,8.5 L1,8.5 L1,10.5 L0,10.5 L0,8.5 Z M21,8.5 L22,8.5 L22,10.5 L21,10.5 L21,8.5 Z M4,0 L18,0 L18,5 L4,5 L4,0 Z M6,2 L6,5 L16,5 L16,2 L6,2 Z" id="Combined-Shape"></path>
        </g>
    </g>
</svg>