<?xml version="1.0" encoding="UTF-8"?>
<svg width="11px" height="12px" viewBox="0 0 11 12" version="1.1" xmlns="http://www.w3.org/2000/svg" xmlns:xlink="http://www.w3.org/1999/xlink">
    <!-- Generator: Sketch 40.3 (33839) - http://www.bohemiancoding.com/sketch -->
    <title>user</title>
    <desc>Created with Sketch.</desc>
    <defs></defs>
    <g id="icon" stroke="none" stroke-width="1" fill="none" fill-rule="evenodd">
        <g id="user" fill="#FFFFFF">
            <path d="M5.5,5.94594595 C4.73611111,5.94594595 4.08680556,5.65690691 3.55208333,5.07882883 C3.01736111,4.50075075 2.75,3.7987988 2.75,2.97297297 C2.75,2.14714715 3.01736111,1.4451952 3.55208333,0.867117117 C4.08680556,0.289039039 4.73611111,0 5.5,0 C6.26388889,0 6.91319444,0.289039039 7.44791667,0.867117117 C7.98263889,1.4451952 8.25,2.14714715 8.25,2.97297297 C8.25,3.7987988 7.98263889,4.50075075 7.44791667,5.07882883 C6.91319444,5.65690691 6.26388889,5.94594595 5.5,5.94594595 L5.5,5.94594595 Z M5.5,7.43243243 C6.64583333,7.43243243 7.84895858,7.70598717 9.10937476,8.25309665 C10.3697919,8.80020665 11,9.51764238 11,10.4054054 L11,11.8918919 L0,11.8918919 L0,10.4054054 C0,9.51764238 0.630208089,8.80020665 1.89062524,8.25309665 C3.15104142,7.70598717 4.35416667,7.43243243 5.5,7.43243243 L5.5,7.43243243 Z"></path>
        </g>
    </g>
</svg>