<?xml version="1.0" encoding="UTF-8"?>
<svg width="22px" height="22px" viewBox="0 0 22 22" version="1.1" xmlns="http://www.w3.org/2000/svg" xmlns:xlink="http://www.w3.org/1999/xlink">
    <!-- Generator: Sketch 42 (36781) - http://www.bohemiancoding.com/sketch -->
    <title>Combined Shape</title>
    <desc>Created with Sketch.</desc>
    <defs></defs>
    <g id="icon" stroke="none" stroke-width="1" fill="none" fill-rule="evenodd">
        <g id="Artboard-42" fill="#E1E5EE">
            <path d="M17.3684211,12.8053149 L20.1199421,11.7938433 C21.1582694,11.4121494 22,11.9914168 22,13.0966345 L22,19.3243531 C22,20.4255587 21.161985,21.0102041 20.1199421,20.6271444 L17.3684211,19.6156727 L17.3684211,20.009508 C17.3684211,21.1088264 16.4781057,22 15.377644,22 L5.46446123,22 C4.36498544,22 3.47368421,21.1106457 3.47368421,20.009508 L3.47368421,12.4115446 C3.47368421,11.3122263 4.36399952,10.4210526 5.46446123,10.4210526 L15.377644,10.4210526 C16.4771198,10.4210526 17.3684211,11.3104069 17.3684211,12.4115446 L17.3684211,12.8053149 Z M17.3684211,14.9690216 L17.3684211,17.451905 L20.2631579,18.338649 L20.2631579,14.0822775 L17.3684211,14.9690216 Z M4.63157895,9.26315789 C2.07362853,9.26315789 0,7.18952937 0,4.63157895 C0,2.07362853 2.07362853,0 4.63157895,0 C7.18952937,0 9.26315789,2.07362853 9.26315789,4.63157895 C9.26315789,7.18952937 7.18952937,9.26315789 4.63157895,9.26315789 Z M4.63157895,6.94736842 C5.91055416,6.94736842 6.94736842,5.91055416 6.94736842,4.63157895 C6.94736842,3.35260374 5.91055416,2.31578947 4.63157895,2.31578947 C3.35260374,2.31578947 2.31578947,3.35260374 2.31578947,4.63157895 C2.31578947,5.91055416 3.35260374,6.94736842 4.63157895,6.94736842 Z M15.0526316,9.26315789 C12.4946812,9.26315789 10.4210526,7.18952937 10.4210526,4.63157895 C10.4210526,2.07362853 12.4946812,0 15.0526316,0 C17.610582,0 19.6842105,2.07362853 19.6842105,4.63157895 C19.6842105,7.18952937 17.610582,9.26315789 15.0526316,9.26315789 Z M15.0526316,6.94736842 C16.3316068,6.94736842 17.3684211,5.91055416 17.3684211,4.63157895 C17.3684211,3.35260374 16.3316068,2.31578947 15.0526316,2.31578947 C13.7736564,2.31578947 12.7368421,3.35260374 12.7368421,4.63157895 C12.7368421,5.91055416 13.7736564,6.94736842 15.0526316,6.94736842 Z M5.78947368,12.7368421 L5.78947368,19.6842105 L15.0526316,19.6842105 L15.0526316,12.7368421 L5.78947368,12.7368421 Z" id="Combined-Shape"></path>
        </g>
    </g>
</svg>